<svg xmlns="http://www.w3.org/2000/svg" width="147.851" height="202.286" viewBox="0 0 147.851 202.286"><g transform="translate(-762.883 -185.929)"><path d="M848.319,905.933c-.567,1.148.135,7.828,2.677,16.891,2.457,8.762,4.723,13.035,5.532,13.624.568-1.147-.134-7.827-2.677-16.89C851.395,910.8,849.13,906.521,848.319,905.933Z" transform="translate(-62.392 -704.256)" fill="#20957a"></path><path d="M853.28,936.956c.154-.034.192-.1.216-.157.463-1.132-2.321-5.835-7.9-10.925a29.054,29.054,0,0,0-7.847-5.479,3,3,0,0,0-1.566-.292c-.154.034-.191.1-.216.156-.463,1.132,2.32,5.836,7.9,10.926C848.376,935.3,852.084,937.226,853.28,936.956Z" transform="translate(-62.906 -703.66)" fill="#20957a"></path><path d="M852.253,938.945c0-.034.008-.139-.162-.305a2.587,2.587,0,0,0-.853-.492,17.607,17.607,0,0,0-7.1-.585c-5.131.41-8.481,1.977-8.533,2.876,0,.034-.008.138.162.3.8.788,3.8,1.411,7.959,1.076C848.851,941.41,852.2,939.843,852.253,938.945Z" transform="translate(-62.92 -702.928)" fill="#20957a"></path><path d="M849.163,943.276a.526.526,0,0,0-.064-.031c-.835-.325-3.785,1.124-6.777,4.286-2.417,2.554-3.547,4.846-3.415,5.789.028.2.106.246.139.267.737.412,3.767-1,6.841-4.254,2.417-2.555,3.547-4.847,3.415-5.79C849.274,943.343,849.2,943.3,849.163,943.276Z" transform="translate(-62.781 -702.687)" fill="#20957a"></path><path d="M838.529,950.925a2.322,2.322,0,0,0-.04-2.206,6.706,6.706,0,0,0-3.565-3.257,4.7,4.7,0,0,0-1.573-.341,1.943,1.943,0,0,0-1.749.72,2.312,2.312,0,0,0,.04,2.2,6.493,6.493,0,0,0,5.138,3.6A1.947,1.947,0,0,0,838.529,950.925Z" transform="translate(-63.099 -702.606)" fill="#20957a"></path><path d="M844.837,919.85a1.945,1.945,0,0,0,1.749-.719,2.319,2.319,0,0,0-.041-2.206,6.706,6.706,0,0,0-3.564-3.255,4.7,4.7,0,0,0-1.573-.341,1.952,1.952,0,0,0-1.751.72,2.321,2.321,0,0,0,.041,2.2A6.491,6.491,0,0,0,844.837,919.85Z" transform="translate(-62.76 -703.944)" fill="#20957a"></path><path d="M854.119,904.445a1.945,1.945,0,0,0,1.749-.719,2.317,2.317,0,0,0-.04-2.206,6.706,6.706,0,0,0-3.564-3.255,4.7,4.7,0,0,0-1.574-.341,1.951,1.951,0,0,0-1.75.72,2.318,2.318,0,0,0,.041,2.2A6.485,6.485,0,0,0,854.119,904.445Z" transform="translate(-62.369 -704.593)" fill="#20957a"></path><path d="M896.076,964.478c.238-.007.3-.088.325-.114.57-.7-.834-4.12-4.331-7.895a17.635,17.635,0,0,0-5.624-4.382,2.587,2.587,0,0,0-.961-.215c-.239.007-.3.088-.326.115-.57.7.834,4.117,4.331,7.893C892.328,962.946,894.95,964.516,896.076,964.478Z" transform="translate(-60.839 -702.322)" fill="#20957a"></path><path d="M894.715,969.022a4.7,4.7,0,0,0-1.388-.814,6.706,6.706,0,0,0-4.827-.019,2.322,2.322,0,0,0-1.523,1.6,1.947,1.947,0,0,0,.8,1.713,6.5,6.5,0,0,0,6.216.833,2.323,2.323,0,0,0,1.523-1.6A1.947,1.947,0,0,0,894.715,969.022Z" transform="translate(-60.758 -701.654)" fill="#20957a"></path><g transform="translate(769.076 192.113)"><path d="M859.143,983.439c-.847.1-1.667.172-2.462.209C858.345,983.976,859.263,983.907,859.143,983.439Z" transform="translate(-831.108 -893.107)" fill="#006cb6"></path><path d="M845.948,966.154c-2.987.234-4.49-.586-4.181-2.414.7-4.169-3.36-6.41-6.3-3.472a3.426,3.426,0,0,0,3.076,5.812c2.557-.488,2.449.471-.461,4.151-3.589,4.54-5.943,8.043-5.943,8.841,0,.358,1.931-1.3,3.121-3.085,1.754-2.374,3.09-3.715,3.564.412.6,5.18,4.343,8.886,12.282,12.148,5.887,2.422,5.852,2.341-1.037-2.479-6.1-4.266-7.567-6.339-4.185-5.4l-.02-.023C843.3,977.243,843.5,972.128,845.948,966.154Z" transform="translate(-832.141 -894.138)" fill="#e87492"></path><path d="M914.915,916.7c-.985-1.348-.387-3.562,2.453-6.4,4.12-4.12,4.58-8.23,1.287-11.523a6.3,6.3,0,0,0-4.555-2.024c-5.491.044-10.4,7.92-5.863,13.692,2.442,3.1,1.606,5.948-2.108,7.174a9.446,9.446,0,0,0-1.523.656A39.7,39.7,0,0,1,914.915,916.7Z" transform="translate(-829.091 -896.755)" fill="#ffd939"></path><path d="M955.007,897.968a19.7,19.7,0,0,0-5.164,3.5c-3.608,3.238-15.024,10.812-20.347,13.5a30.3,30.3,0,0,1-8.425,2.932,8.73,8.73,0,0,1,5.4,6.923,37.472,37.472,0,0,1,6.9-4.381C942.944,915.473,961.854,895.835,955.007,897.968Z" transform="translate(-828.398 -896.711)" fill="#ffd939"></path><path d="M918.77,975.952c.061-21.467.518-23.949,3.036-16.381,2.753,8.288,15.888,39.151,17.179,40.368,1.2,1.128.659-3.26-2.253-18.344-3.187-16.529-5.149-23.582-8.714-31.372a78.684,78.684,0,0,1-4.8-12.549,80.84,80.84,0,0,1-13.806,17.777C915.528,997.615,918.685,1004.541,918.77,975.952Z" transform="translate(-828.889 -895.033)" fill="#ffd939"></path><path d="M873.261,935.181c-4.187-4.215-5.9-7.824-4.609-10.225,3.917-7.271-4.989-14.128-9.958-7.668-3.334,4.339-.317,11.15,4.943,11.15,2.123,0,1.706,1.542-1.421,5.258-1.427,1.695-4.224,9.922-6.423,17.717A117.865,117.865,0,0,1,873.261,935.181Z" transform="translate(-831.146 -895.999)" fill="#e1322b"></path><path d="M886.064,987.163h.005c5.615,10.517,10.375,18.954,10.578,18.751.544-.544-4.867-15.4-11.559-32.308q-2.481,1.443-4.919,2.7C881.862,979.335,883.813,982.947,886.064,987.163Z" transform="translate(-830.12 -893.52)" fill="#e1322b"></path><path d="M869.668,981.131c0-.1,0-.19,0-.287q-1.884.663-3.688,1.181C867.786,992.578,869.586,994.627,869.668,981.131Z" transform="translate(-830.717 -893.216)" fill="#e1322b"></path><path d="M921.348,917.131A17.024,17.024,0,0,0,914.5,915.9C915.464,917.219,917.955,917.7,921.348,917.131Z" transform="translate(-828.674 -895.949)" fill="none"></path><path d="M869.521,981.523a88.351,88.351,0,0,0,11.1-4.842C870.638,958.828,869.654,961.357,869.521,981.523Z" transform="translate(-830.568 -893.895)" fill="none"></path><path d="M845.331,979.788c2.283,3,6.452,4.268,11.827,4.014a49.3,49.3,0,0,1-8.779-2.9A26.83,26.83,0,0,0,845.331,979.788Z" transform="translate(-831.586 -893.26)" fill="none"></path><path d="M855.939,981.629c-12.682-6.47-14.99-10.894-7.632-14.624,3.3-1.672,4.379-2.713,2.156-2.083a26.454,26.454,0,0,1-4.995.987c-2.451,5.974-2.651,11.089-.081,14.489l.02.023a26.83,26.83,0,0,1,3.048,1.11,49.3,49.3,0,0,0,8.779,2.9c.8-.038,1.615-.105,2.462-.209C859.574,983.759,858.419,982.9,855.939,981.629Z" transform="translate(-831.661 -893.894)" fill="#f2b1c0"></path><path d="M922.329,917.131c-3.393.573-5.884.089-6.849-1.233a39.7,39.7,0,0,0-10.309,1.574c-5.07,2.717-8.322,10.274-10.365,23.935-1.057,7.037-3.291,6.946-3.6,8.179-.412,1.619,3.806-1.345,3.806-1.345.8,0,3.671-8.292,3.671-10.193,0-3.057,2.87-9.5,4.232-9.5,2.662,0,3.959,4.849,7.057,26.367.071.491.141.971.211,1.452a80.84,80.84,0,0,0,13.806-17.777c-1.727-6.713-.609-10.859,3.75-14.538a8.73,8.73,0,0,0-5.4-6.923Z" transform="translate(-829.656 -895.949)" fill="#ffe066"></path><path d="M880.842,944.333c12.953,6.264,15.818,6.476,6.208.459a77.892,77.892,0,0,1-13.663-10.438,117.865,117.865,0,0,0-17.47,16.233c-2.2,7.776-3.8,15.123-2.853,15.123,1.61,0,4.786-6.638,6.479-13.543,2.487-10.149,3.212-9.512,4.011,3.527a281.044,281.044,0,0,0,2.984,28.288q1.8-.517,3.688-1.181c.133-20.167,1.117-22.695,11.1-4.842q2.435-1.257,4.919-2.7c-3.312-8.366-6.938-17.233-10.313-25.117C871.531,939.874,871.557,939.844,880.842,944.333Z" transform="translate(-831.272 -895.172)" fill="#e64f3e"></path></g><g transform="translate(766.042 186.567)"><path d="M857.159,980.3c7.625,4.678,1.948,4.156-7.453-.685-6.612-3.4-6.253-1.437.8,4.367,6.49,5.345,6.518,5.428.84,2.552-7.659-3.873-11.106-7.862-11.293-13.072-.149-4.152-1.586-2.919-3.521-.691-1.326,1.682-7.327,8.089-7.3,7.731" transform="translate(-829.23 -888.096)" fill="none" stroke="#0e1857" stroke-linecap="round" stroke-miterlimit="10" stroke-width="0.916"></path><path d="M838.223,965.147a3.426,3.426,0,0,1-2.611-6.035c3.16-2.7,7.036-.146,6.007,3.955-.658,2.62,2.686,3.412,9.036,2.141,2.264-.452,1.112.5-2.312,1.909" transform="translate(-829.013 -888.631)" fill="none" stroke="#0e1857" stroke-linecap="round" stroke-miterlimit="10" stroke-width="0.916"></path><path d="M917.756,981.584c7.195-39.518-2.54-28.62.741-19.1,2.095,8.479,14.779,38.9,15.971,40.216,1.1,1.218.912-3.2-.809-18.464-1.882-16.728-3.285-23.912-6.229-31.959" transform="translate(-825.504 -888.872)" fill="none" stroke="#0e1857" stroke-linecap="round" stroke-miterlimit="10" stroke-width="0.916"></path><path d="M903.889,927.725c2.659.112,3.753,5.01,5.946,26.64" transform="translate(-826.088 -889.905)" fill="none" stroke="#0e1857" stroke-linecap="round" stroke-miterlimit="10" stroke-width="0.916"></path><path d="M965.814,891.433c-4.621,3.235-27.539,22.186-32.97,24.646-12.183,5.527-20.542,2.056-12.612-5.235,4.289-3.943,4.92-8.03,1.767-11.459a6.293,6.293,0,0,0-4.465-2.212c-5.488-.186-10.722,7.477-6.431,13.434,2.309,3.2,1.355,6.011-2.408,7.079-6.029,1.714-10.042,9.2-12.907,24.072-1.351,6.987-4.586,8.858-4.586,8.858" transform="translate(-826.622 -891.433)" fill="none" stroke="#0e1857" stroke-linecap="round" stroke-miterlimit="10" stroke-width="0.916"></path><path d="M868.487,965.965c-1.587,58.087-5.852,18.234-5.329-11.931.226-13.06-.446-13.752-3.721-3.83-2.229,6.751-5.915,13.12-7.52,12.994-1.886-.149,3.954-24.053,10.858-30.244,3.409-3.46,4.91-6.733,2.793-6.9-5.243-.413-7.717-7.438-4.054-11.5,5.462-6.051,13.8,1.483,9.328,8.424-2.6,4.04,3.809,12.554,16.6,22.032,9.11,6.751,6.27,6.315-6.151-.944-8.9-5.2-8.933-5.175-5.354,5.405,8.3,24.543,22.8,58.277,21.921,59.024-.218.187-2.808-42.634-37.617-18.405" transform="translate(-828.29 -890.553)" fill="none" stroke="#0e1857" stroke-linecap="round" stroke-miterlimit="10" stroke-width="0.916"></path></g><g transform="translate(762.883 304.511)"><path d="M1027.56,896.7a3.349,3.349,0,0,0-1.311-1.01,6.924,6.924,0,0,0-1.288-.451,7.061,7.061,0,0,0-1.6-.151,8.349,8.349,0,0,0-4.61,1.334,9.054,9.054,0,0,0-3.321,4.408,22.977,22.977,0,0,0-1.246,8.409,24,24,0,0,0,1.179,8.365,8.707,8.707,0,0,0,3.212,4.387,8.234,8.234,0,0,0,4.567,1.312,10.2,10.2,0,0,0,2.228-.193,8.538,8.538,0,0,0,1.661-.581,2.7,2.7,0,0,0,1.268-1.011,10.69,10.69,0,0,0,.786-1.441l1.923-4.215h.437l-.131,6.15a20.255,20.255,0,0,1-4.107,1.548,19.431,19.431,0,0,1-4.982.6,17.041,17.041,0,0,1-7.669-1.7,12.911,12.911,0,0,1-5.44-5.054,15.715,15.715,0,0,1-2.01-8.215,16.074,16.074,0,0,1,1.224-6.5,13.358,13.358,0,0,1,3.343-4.688,14.094,14.094,0,0,1,4.894-2.838,18.083,18.083,0,0,1,5.877-.946,17.816,17.816,0,0,1,4.589.559,18.081,18.081,0,0,1,3.933,1.548l.175,5.291h-.437" transform="translate(-1007.11 -894.232)" fill="#0d165b"></path><path d="M1050.783,925.888a11.721,11.721,0,0,1-5.768-1.355,9.329,9.329,0,0,1-3.78-3.849,12.232,12.232,0,0,1-1.332-5.85,11.384,11.384,0,0,1,1.42-5.807,9.8,9.8,0,0,1,3.889-3.785,12.344,12.344,0,0,1,11.121-.021,9.692,9.692,0,0,1,3.868,3.763,11.481,11.481,0,0,1,1.419,5.85,12.206,12.206,0,0,1-1.332,5.871,9.406,9.406,0,0,1-3.758,3.828A11.6,11.6,0,0,1,1050.783,925.888Zm0-.86a3.435,3.435,0,0,0,2.448-.861,5.587,5.587,0,0,0,1.332-3.053,46.661,46.661,0,0,0,0-12.43,5.584,5.584,0,0,0-1.332-3.053,3.435,3.435,0,0,0-2.448-.861,3.512,3.512,0,0,0-2.469.861,5.474,5.474,0,0,0-1.355,3.053,46.757,46.757,0,0,0,0,12.43,5.478,5.478,0,0,0,1.355,3.053A3.512,3.512,0,0,0,1050.783,925.028Z" transform="translate(-1013.378 -896.082)" fill="#0d165b"></path><path d="M1076.812,925.423a7.466,7.466,0,0,1-3.125-.646,4.785,4.785,0,0,1-2.228-2.086,7.46,7.46,0,0,1-.765-3.806l.131-11.053a2.269,2.269,0,0,0-.349-1.42,1.921,1.921,0,0,0-1.093-.6l-.524-.172v-.429l7.822-1.506.436.43-.218,6.108v10.365a2.43,2.43,0,0,0,.809,2.022,3.157,3.157,0,0,0,2.032.645,6.45,6.45,0,0,0,2.185-.344,7.908,7.908,0,0,0,1.923-1.032l.175-14.021a2.407,2.407,0,0,0-.306-1.4,1.836,1.836,0,0,0-1.136-.58l-.438-.129v-.43l7.647-1.635.438.43-.131,6.108V921.9a3.3,3.3,0,0,0,.262,1.462,2.032,2.032,0,0,0,1.136.86l.438.129v.43l-7.648.43-.393-2.537a15.587,15.587,0,0,1-3.124,1.957A9.17,9.17,0,0,1,1076.812,925.423Z" transform="translate(-1018.914 -896.042)" fill="#0d165b"></path><path d="M1099.544,925.242v-.43l.656-.172a2.035,2.035,0,0,0,1.2-.774,2.452,2.452,0,0,0,.328-1.334V909.071a2.394,2.394,0,0,0-.328-1.4,1.868,1.868,0,0,0-1.2-.624l-.656-.172v-.43l7.516-2.495.438.43.393,3.7v.344a9.045,9.045,0,0,1,1.595-2.215,8.943,8.943,0,0,1,2.185-1.656,5.007,5.007,0,0,1,2.381-.645,3.367,3.367,0,0,1,2.534.9,3.145,3.145,0,0,1,.874,2.28,2.937,2.937,0,0,1-.852,2.257,2.873,2.873,0,0,1-2.033.8,4.039,4.039,0,0,1-3.233-1.806l-.088-.087a1.456,1.456,0,0,0-1-.667,1.166,1.166,0,0,0-1.048.538,3.238,3.238,0,0,0-.721.925,11.137,11.137,0,0,0-.546,1.226v12a1.993,1.993,0,0,0,1.529,2.151l1.4.387v.43Z" transform="translate(-1024.779 -896.082)" fill="#0d165b"></path><path d="M1130.481,925.888a13.788,13.788,0,0,1-3.846-.495,18.025,18.025,0,0,1-3.146-1.225l.044-5.118h.437l1.486,2.581a7.767,7.767,0,0,0,2.119,2.559,4.9,4.9,0,0,0,2.949.839,5.678,5.678,0,0,0,3.387-.925,2.9,2.9,0,0,0,1.289-2.473,3.12,3.12,0,0,0-.917-2.323,8.407,8.407,0,0,0-3.408-1.634l-1.835-.56a9.053,9.053,0,0,1-4.2-2.408,5.635,5.635,0,0,1-1.529-4,6.157,6.157,0,0,1,2.272-4.817q2.271-1.978,6.511-1.979a13.645,13.645,0,0,1,3.211.366,12.737,12.737,0,0,1,2.906,1.1l-.262,4.645h-.438l-1.529-2.667a6.484,6.484,0,0,0-1.639-2,4.161,4.161,0,0,0-2.425-.581,5.2,5.2,0,0,0-2.8.818,2.588,2.588,0,0,0-1.311,2.322,2.783,2.783,0,0,0,1.114,2.322,11.4,11.4,0,0,0,3.3,1.592l1.965.559a9.025,9.025,0,0,1,4.5,2.6,6.087,6.087,0,0,1,1.355,3.979,5.99,5.99,0,0,1-2.512,5.032A11.525,11.525,0,0,1,1130.481,925.888Z" transform="translate(-1029.323 -896.082)" fill="#0d165b"></path></g><g transform="translate(762.925 343.326)"><path d="M986.372,958.678q-2.3-2.048-7.25-2.589,4.323-.766,6.1-2.635A5.905,5.905,0,0,0,987,949.289a6.29,6.29,0,0,0-2.431-5.066q-2.433-2-7.926-2H963.721v.45l.81.316a2.281,2.281,0,0,1,1.238.856,2.794,2.794,0,0,1,.337,1.486V971.94h9.052a24.67,24.67,0,0,0,6.62-.743,11.586,11.586,0,0,0,4.12-1.958,7.1,7.1,0,0,0,2.139-2.68,7.3,7.3,0,0,0,.63-2.9A6.429,6.429,0,0,0,986.372,958.678Zm-13.6-15.558H975.2a4.764,4.764,0,0,1,3.963,1.531q1.216,1.531,1.216,5.134,0,3.467-1.328,4.863t-4.346,1.4h-1.936Zm7.272,26.119a6.468,6.468,0,0,1-5.02,1.8h-2.252V956.945h2.161q3.6,0,5.179,1.531t1.576,5.133Q981.689,967.438,980.044,969.239Z" transform="translate(-963.721 -942.22)" fill="#0d165b"></path></g><path d="M1003.572,974.361a6.615,6.615,0,0,1-4.39-1.486A5.257,5.257,0,0,1,997.4,968.6a5.06,5.06,0,0,1,2.161-3.9,15.432,15.432,0,0,1,6.8-2.679q.72-.136,1.621-.293t1.892-.338v-3.557a8.948,8.948,0,0,0-.743-4.3,2.514,2.514,0,0,0-2.319-1.238,2.191,2.191,0,0,0-1.712.7,4.292,4.292,0,0,0-.81,2.41l-.09.495a4.317,4.317,0,0,1-.946,2.837,2.8,2.8,0,0,1-2.116.9,2.71,2.71,0,0,1-1.936-.721,2.529,2.529,0,0,1-.766-1.936,4.184,4.184,0,0,1,1.284-3.107,8.026,8.026,0,0,1,3.4-1.892,16.045,16.045,0,0,1,4.593-.63,8.959,8.959,0,0,1,6.192,1.959q2.184,1.958,2.185,6.371v9.952q0,2.027,1.891,2.027h.991l.405.36a6.654,6.654,0,0,1-1.869,1.666,5.769,5.769,0,0,1-2.859.586,4.855,4.855,0,0,1-3.129-.924,4.306,4.306,0,0,1-1.508-2.454,18.755,18.755,0,0,1-2.77,2.454A6.168,6.168,0,0,1,1003.572,974.361Zm2.747-2.747a3.475,3.475,0,0,0,1.689-.428,12.009,12.009,0,0,0,1.869-1.328v-7.565l-.9.18q-.451.091-1.035.18a6.89,6.89,0,0,0-3.31,1.824,4.749,4.749,0,0,0-1.239,3.445,3.948,3.948,0,0,0,.856,2.77A2.721,2.721,0,0,0,1006.319,971.614Z" transform="translate(-207.234 -600.639)" fill="#0d165b"></path><path d="M1033.627,974.361a14.023,14.023,0,0,1-3.963-.518,18.414,18.414,0,0,1-3.243-1.283l.045-5.359h.45l1.531,2.7a8.1,8.1,0,0,0,2.184,2.68,4.994,4.994,0,0,0,3.04.878,5.789,5.789,0,0,0,3.49-.968,3.046,3.046,0,0,0,1.328-2.59,3.291,3.291,0,0,0-.946-2.431,8.6,8.6,0,0,0-3.512-1.711l-1.892-.586a9.294,9.294,0,0,1-4.323-2.522,5.951,5.951,0,0,1-1.576-4.188,6.489,6.489,0,0,1,2.342-5.043q2.342-2.071,6.71-2.071a13.825,13.825,0,0,1,3.31.383,13.011,13.011,0,0,1,2.994,1.149l-.27,4.864h-.451l-1.576-2.792a6.735,6.735,0,0,0-1.688-2.094,4.232,4.232,0,0,0-2.5-.608,5.3,5.3,0,0,0-2.882.856,2.719,2.719,0,0,0-1.351,2.432,2.926,2.926,0,0,0,1.149,2.431,11.677,11.677,0,0,0,3.4,1.666l2.026.586a9.273,9.273,0,0,1,4.638,2.724,6.435,6.435,0,0,1,1.4,4.166,6.3,6.3,0,0,1-2.589,5.269Q1038.309,974.36,1033.627,974.361Z" transform="translate(-212.747 -600.639)" fill="#0d165b"></path><path d="M1058.42,973.031a6.458,6.458,0,0,1-4.48-1.441q-1.6-1.441-1.6-4.593V951.6h-3.107v-.45l1.081-.18a8.577,8.577,0,0,0,2.41-.9,9.778,9.778,0,0,0,2-1.576l3.692-4.1h.451l-.135,6.3h5.044v.9h-5.089v16.212a3.563,3.563,0,0,0,.7,2.387,2.243,2.243,0,0,0,1.779.81,2.97,2.97,0,0,0,1.666-.473,7.389,7.389,0,0,0,1.441-1.283l.45.45a6.637,6.637,0,0,1-2.477,2.432A7.607,7.607,0,0,1,1058.42,973.031Z" transform="translate(-217.142 -599.309)" fill="#0d165b"></path><path d="M1070.223,971.514v-.45l.63-.18a2.1,2.1,0,0,0,1.238-.81,2.7,2.7,0,0,0,.338-1.441V954.537a2.445,2.445,0,0,0-.338-1.419,1.919,1.919,0,0,0-1.238-.653l-.63-.135v-.451l8.24-2.656.451.45-.135,6.395v12.609a2.694,2.694,0,0,0,.337,1.441,2.07,2.07,0,0,0,1.194.811l.45.135v.45Zm5.313-24.677a3.692,3.692,0,0,1-2.589-.968,3.4,3.4,0,0,1,0-4.931,3.745,3.745,0,0,1,2.589-.946,3.666,3.666,0,0,1,2.567.946,3.453,3.453,0,0,1,0,4.931A3.614,3.614,0,0,1,1075.536,946.837Z" transform="translate(-221.154 -598.468)" fill="#0d165b"></path><path d="M1095.29,972.179a9.554,9.554,0,0,1-4.774-1.193,8.313,8.313,0,0,1-3.354-3.692,14.447,14.447,0,0,1-1.238-6.417,13.713,13.713,0,0,1,1.4-6.552,9.4,9.4,0,0,1,3.692-3.872,10.075,10.075,0,0,1,5-1.284,14.135,14.135,0,0,1,3.018.315,9.286,9.286,0,0,1,2.567.946v-5.854a2.619,2.619,0,0,0-.293-1.4,1.826,1.826,0,0,0-1.238-.63l-.856-.18v-.45l8.2-1.982.495.405-.18,6.3v22.021a2.977,2.977,0,0,0,.315,1.463,1.771,1.771,0,0,0,1.171.789l.405.135v.45l-7.7.5-.405-1.621a10.967,10.967,0,0,1-2.77,1.305A11.31,11.31,0,0,1,1095.29,972.179Zm2.612-1.665a5.831,5.831,0,0,0,3.468-1.127V951.51a6.215,6.215,0,0,0-3.422-1.081q-2.162,0-3.693,2.5t-1.531,7.858q0,5.359,1.441,7.542A4.326,4.326,0,0,0,1097.9,970.514Z" transform="translate(-224.155 -598.457)" fill="#0d165b"></path><path d="M1129,951.35a9.86,9.86,0,0,1,5,1.193,8.147,8.147,0,0,1,3.175,3.243,9.677,9.677,0,0,1,1.1,4.661q0,.5-.044,1.013a4.081,4.081,0,0,1-.18.923h-13.42q.045,4.863,1.733,7a6.009,6.009,0,0,0,5.021,2.139,7.961,7.961,0,0,0,3.648-.721,8.9,8.9,0,0,0,2.612-2.117l.451.405a10.362,10.362,0,0,1-3.715,3.874,10.6,10.6,0,0,1-5.562,1.4,11.5,11.5,0,0,1-5.674-1.373,9.687,9.687,0,0,1-3.873-3.94,12.64,12.64,0,0,1-1.4-6.125,11.611,11.611,0,0,1,1.621-6.282,10.912,10.912,0,0,1,4.166-3.94A11.226,11.226,0,0,1,1129,951.35Zm-.135.9a3.32,3.32,0,0,0-2.229.789,5.388,5.388,0,0,0-1.441,2.791,25.04,25.04,0,0,0-.563,5.652h7.7q.45-4.908-.36-7.07A3.059,3.059,0,0,0,1128.866,952.25Z" transform="translate(-230.264 -600.639)" fill="#0d165b"></path><g transform="translate(765.312 381.065)"><path d="M973.769,989.007v6.94h-1.041v-4.016l.084-1.915h-.01l-2.113,5.93h-.936l-2.114-5.93h-.011l.084,1.915v4.016h-1.042v-6.94h1.673l1.4,4.017.484,1.651h.02l.495-1.651,1.388-4.017Z" transform="translate(-966.671 -988.903)" fill="#1d2335"></path><path d="M996.472,995.947h-1.188l-.662-1.818h-2.913l-.662,1.818h-1.157l2.619-6.94h1.346Zm-4.448-2.733h2.282l-1.136-3.239Z" transform="translate(-971.109 -988.903)" fill="#1d2335"></path><path d="M1015.287,989.007a2.652,2.652,0,0,1,1.771.557,1.873,1.873,0,0,1,.658,1.5,1.83,1.83,0,0,1-.658,1.508,2.741,2.741,0,0,1-1.771.531l-.105.063h-1.61v2.776h-1.114v-6.94Zm-.085,3.229a1.546,1.546,0,0,0,1.015-.28,1.267,1.267,0,0,0,0-1.707,1.527,1.527,0,0,0-1.015-.285h-1.63v2.272Zm.662.23,2.261,3.48h-1.292l-1.936-3.038Z" transform="translate(-975.423 -988.903)" fill="#1d2335"></path><path d="M1036.312,988.878a3.49,3.49,0,0,1,1.619.352,3.161,3.161,0,0,1,1.157,1.035l-.758.726a2.526,2.526,0,0,0-.9-.878,2.466,2.466,0,0,0-1.182-.269,2.165,2.165,0,0,0-.832.137,1.041,1.041,0,0,0-.478.362.9.9,0,0,0-.153.51.8.8,0,0,0,.226.567,1.654,1.654,0,0,0,.847.379l1.409.316a2.713,2.713,0,0,1,1.43.673,1.613,1.613,0,0,1,.421,1.145,1.843,1.843,0,0,1-.347,1.115,2.193,2.193,0,0,1-.963.725,3.773,3.773,0,0,1-1.445.253,4.315,4.315,0,0,1-1.324-.19,3.578,3.578,0,0,1-1.031-.514,3.044,3.044,0,0,1-.725-.747l.778-.777a2.682,2.682,0,0,0,.556.657,2.441,2.441,0,0,0,.784.447,2.988,2.988,0,0,0,.993.156,2.7,2.7,0,0,0,.836-.115,1.13,1.13,0,0,0,.536-.341.834.834,0,0,0,.184-.542.778.778,0,0,0-.2-.535,1.438,1.438,0,0,0-.763-.358l-1.525-.346a3.344,3.344,0,0,1-1.041-.391,1.593,1.593,0,0,1-.81-1.429,1.877,1.877,0,0,1,.321-1.067,2.242,2.242,0,0,1,.93-.768A3.367,3.367,0,0,1,1036.312,988.878Z" transform="translate(-979.404 -988.878)" fill="#1d2335"></path><path d="M1055.357,995.947v-6.94h5.026v.968h-3.9v2h3.048v.946h-3.048v2.061h4.047v.967Z" transform="translate(-983.624 -988.903)" fill="#1d2335"></path><path d="M1077.659,989.007v6.94h-1.125v-6.94Z" transform="translate(-987.672 -988.903)" fill="#1d2335"></path><path d="M1094.507,994.98h3.828v.967h-4.953v-6.94h1.125Z" transform="translate(-990.892 -988.903)" fill="#1d2335"></path><path d="M1115.2,994.98h3.828v.967h-4.953v-6.94h1.125Z" transform="translate(-994.848 -988.903)" fill="#1d2335"></path><path d="M1134.774,995.947v-6.94h5.026v.968h-3.9v2h3.049v.946H1135.9v2.061h4.048v.967Z" transform="translate(-998.805 -988.903)" fill="#1d2335"></path></g><g transform="translate(380.97 -351.589)"><g transform="translate(501.598 657.882)"><path d="M534.625,680.916V659.382H510.2v21.534a3.5,3.5,0,0,0,1.942,3.058l8.88,4.712a3,3,0,0,0,2.78,0l8.88-4.712A3.5,3.5,0,0,0,534.625,680.916Z" transform="translate(-509.75 -658.932)" fill="#fff"></path><path d="M521.362,688.427a3.42,3.42,0,0,1-1.6-.393l-8.88-4.712a3.96,3.96,0,0,1-2.181-3.456V658.332a.449.449,0,0,1,.45-.45h24.425a.449.449,0,0,1,.45.45v21.534a3.96,3.96,0,0,1-2.181,3.456l-8.88,4.712A3.421,3.421,0,0,1,521.362,688.427ZM509.6,658.781v21.084a3.064,3.064,0,0,0,1.7,2.661l8.88,4.712a2.548,2.548,0,0,0,2.359,0l8.88-4.712a3.064,3.064,0,0,0,1.7-2.661V658.781Z" transform="translate(-508.7 -657.882)" fill="#0d165b"></path></g><path d="M518.235,673c-.031.344.827,1.955,2.4,3.985a10.657,10.657,0,0,0,2.814,2.883c.031-.344-.827-1.955-2.4-3.985A10.646,10.646,0,0,0,518.235,673Z" transform="translate(-13.778 -10.585)" fill="#0d165b"></path><path d="M518.985,693.227c.037-.024.04-.043.04-.061.005-.33-1.192-1.24-3.155-1.972a8.3,8.3,0,0,0-2.59-.608.857.857,0,0,0-.436.08c-.037.024-.04.043-.04.06-.006.33,1.192,1.24,3.155,1.972C517.545,693.291,518.7,693.412,518.985,693.227Z" transform="translate(-9.975 -22.899)" fill="#0d165b"></path><path d="M523.69,701.782c0-.009-.012-.036-.073-.061a.74.74,0,0,0-.271-.04,5.025,5.025,0,0,0-1.9.55c-1.29.607-2,1.329-1.922,1.56,0,.009.012.035.073.061a3.685,3.685,0,0,0,2.174-.51C523.057,702.736,523.768,702.013,523.69,701.782Z" transform="translate(-14.675 -30.668)" fill="#0d165b"></path><path d="M528.062,677.2a5.069,5.069,0,0,0-2.142-.77.344.344,0,0,0-.259.07c-.006.007-.024.029-.012.092.056.3.635.9,1.634,1.48,1.231.711,2.244.89,2.4.7.006-.007.024-.029.012-.092C529.64,678.385,529.061,677.781,528.062,677.2Z" transform="translate(-18.967 -12.989)" fill="#0d165b"></path><path d="M526.245,669.547a3.7,3.7,0,0,0,2.174-.51c1.289-.606,2-1.329,1.922-1.56,0-.009-.012-.035-.073-.061a3.688,3.688,0,0,0-2.174.51c-1.289.607-2,1.329-1.922,1.561C526.176,669.5,526.185,669.522,526.245,669.547Z" transform="translate(-19.332 -6.647)" fill="#0d165b"></path><path d="M527.749,707.664l-.02,0c-.25,0-.868.654-1.324,1.742a2.7,2.7,0,0,0-.3,1.791c.028.048.052.052.063.053.233.031.875-.622,1.344-1.741a2.7,2.7,0,0,0,.3-1.791C527.785,707.669,527.76,707.665,527.749,707.664Z" transform="translate(-19.245 -34.856)" fill="#0d165b"></path><path d="M557.4,672.09c.154.022.582-.365.894-1.021.245-.516.286-.919.2-1.051a.057.057,0,0,0-.042-.031h-.013c-.166,0-.578.383-.881,1.022-.245.516-.286.919-.2,1.051C557.378,672.087,557.394,672.089,557.4,672.09Z" transform="translate(-41.144 -8.475)" fill="#0d165b"></path><path d="M549.61,666.746a.072.072,0,0,0,.05.008c.288-.056.665-.841.625-1.992-.032-.944-.332-1.568-.6-1.674a.1.1,0,0,0-.038-.009l-.012,0c-.287.056-.664.841-.625,1.992C549.044,666.016,549.344,666.639,549.61,666.746Z" transform="translate(-35.326 -3.638)" fill="#0d165b"></path><path d="M517.706,715.315a.616.616,0,0,0-.234-.551,1.9,1.9,0,0,0-1.254-.469,1.342,1.342,0,0,0-.443.069.533.533,0,0,0-.381.353.615.615,0,0,0,.234.55,1.849,1.849,0,0,0,1.7.4A.535.535,0,0,0,517.706,715.315Z" transform="translate(-11.783 -39.5)" fill="#0d165b"></path><path d="M515.842,684.319a.535.535,0,0,0,.381-.352.617.617,0,0,0-.234-.551,1.9,1.9,0,0,0-1.254-.469,1.342,1.342,0,0,0-.443.069.536.536,0,0,0-.381.353.617.617,0,0,0,.234.55A1.848,1.848,0,0,0,515.842,684.319Z" transform="translate(-10.745 -17.55)" fill="#0d165b"></path><path d="M518.794,667.688a.535.535,0,0,0,.381-.353.617.617,0,0,0-.234-.551,1.9,1.9,0,0,0-1.254-.469,1.349,1.349,0,0,0-.443.069.536.536,0,0,0-.381.353.616.616,0,0,0,.234.55A1.847,1.847,0,0,0,518.794,667.688Z" transform="translate(-12.811 -5.905)" fill="#0d165b"></path><path d="M568.266,678.314c1.575-2.027,2.432-3.637,2.4-3.985a10.647,10.647,0,0,0-2.814,2.884c-1.575,2.027-2.433,3.636-2.4,3.985A10.665,10.665,0,0,0,568.266,678.314Z" transform="translate(-46.839 -11.516)" fill="#0d165b"></path><path d="M571.358,691.194c-1.963.732-3.161,1.642-3.155,1.972,0,.017,0,.037.04.061.283.185,1.44.064,3.026-.528,1.963-.732,3.161-1.642,3.156-1.972,0-.017,0-.037-.04-.06C574.1,690.479,572.943,690.6,571.358,691.194Z" transform="translate(-48.765 -22.899)" fill="#0d165b"></path><path d="M572.4,703.852c.061-.025.07-.052.073-.061.077-.231-.633-.955-1.922-1.56a5.025,5.025,0,0,0-1.9-.55.74.74,0,0,0-.271.04c-.061.025-.07.052-.073.061-.078.231.633.954,1.922,1.56A3.683,3.683,0,0,0,572.4,703.852Z" transform="translate(-48.833 -30.668)" fill="#0d165b"></path><path d="M566.975,677.22c.01-.048-.005-.064-.01-.07-.13-.143-.964-.008-1.979.527-.823.434-1.3.89-1.346,1.115-.01.047.005.064.01.07.13.143.965.009,1.979-.527C566.452,677.9,566.929,677.445,566.975,677.22Z" transform="translate(-45.568 -13.454)" fill="#0d165b"></path><path d="M563.576,669.037a3.694,3.694,0,0,0,2.173.51c.061-.026.07-.052.073-.061.078-.231-.633-.954-1.922-1.56a5.033,5.033,0,0,0-1.9-.55.733.733,0,0,0-.271.04c-.061.025-.07.052-.073.061C561.576,667.708,562.287,668.431,563.576,669.037Z" transform="translate(-44.176 -6.648)" fill="#0d165b"></path><path d="M570.4,708.661c-.011,0-.036.006-.063.053a2.7,2.7,0,0,0,.3,1.791c.468,1.118,1.1,1.779,1.344,1.741.011,0,.036-.006.063-.053a2.7,2.7,0,0,0-.3-1.791C571.272,709.284,570.631,708.629,570.4,708.661Z" transform="translate(-50.213 -35.555)" fill="#0d165b"></path><path d="M580.1,713.553a1.349,1.349,0,0,0-.443-.068,1.9,1.9,0,0,0-1.254.469.617.617,0,0,0-.234.551.534.534,0,0,0,.381.352,1.849,1.849,0,0,0,1.7-.4.616.616,0,0,0,.234-.55A.534.534,0,0,0,580.1,713.553Z" transform="translate(-55.737 -38.933)" fill="#0d165b"></path><path d="M580.094,683.967a.535.535,0,0,0,.381.352,1.849,1.849,0,0,0,1.7-.4.616.616,0,0,0,.234-.55.535.535,0,0,0-.381-.353,1.341,1.341,0,0,0-.443-.069,1.9,1.9,0,0,0-1.254.469A.617.617,0,0,0,580.094,683.967Z" transform="translate(-57.085 -17.55)" fill="#0d165b"></path><path d="M577.524,667.688a1.846,1.846,0,0,0,1.7-.4.616.616,0,0,0,.234-.55.536.536,0,0,0-.381-.353,1.35,1.35,0,0,0-.443-.069,1.9,1.9,0,0,0-1.254.469.617.617,0,0,0-.234.551A.535.535,0,0,0,577.524,667.688Z" transform="translate(-55.019 -5.905)" fill="#0d165b"></path><path d="M538.18,674.925a.535.535,0,0,0,.381.353,1.849,1.849,0,0,0,1.7-.4.617.617,0,0,0,.234-.551.535.535,0,0,0-.381-.352,1.352,1.352,0,0,0-.443-.069,1.9,1.9,0,0,0-1.254.469A.616.616,0,0,0,538.18,674.925Z" transform="translate(-27.737 -11.22)" fill="#0d165b"></path><g transform="translate(504.993 663.726)"><path d="M538.859,694.951s-.033-1-2.17-3.551-2.959-5.422-2.959-9.374-3.251-3.9-3.633-3.9h0a3.713,3.713,0,0,0-3.865,3.9c0,3.953-.875,6.821-3.148,9.374s-2.309,3.551-2.309,3.551S538.859,694.765,538.859,694.951Z" transform="translate(-520.55 -677.9)" fill="#fff"></path><path d="M538.334,694.649a.221.221,0,0,1-.094-.021c-.735-.113-11.114-.05-17.987.021a.242.242,0,0,1-.163-.068.225.225,0,0,1-.064-.165c0-.11.1-1.151,2.365-3.692,2.167-2.433,3.091-5.192,3.091-9.225a4.012,4.012,0,0,1,1.082-2.962,4.427,4.427,0,0,1,3.005-1.163h.008a3.862,3.862,0,0,1,2.776,1.032,4.2,4.2,0,0,1,1.077,3.093c0,4.035.869,6.8,2.907,9.23,2.125,2.54,2.219,3.577,2.222,3.687v.007a.225.225,0,0,1-.221.225Zm-8.754-16.825a4.075,4.075,0,0,0-2.7,1.032,3.581,3.581,0,0,0-.95,2.644c0,4.153-.959,7-3.205,9.524a10.594,10.594,0,0,0-2.188,3.173c12.862-.132,16.465-.083,17.507-.013a10.756,10.756,0,0,0-2.054-3.164c-2.111-2.522-3.012-5.369-3.012-9.519a3.775,3.775,0,0,0-.945-2.775,3.4,3.4,0,0,0-2.441-.9Z" transform="translate(-520.025 -677.373)" fill="#0d165b"></path></g><rect width="4.193" height="0.263" transform="matrix(0.902, -0.431, 0.431, 0.902, 507.278, 677.353)" fill="#0d165b"></rect><rect width="6.353" height="0.263" transform="matrix(0.859, -0.512, 0.512, 0.859, 507.669, 679.963)" fill="#0d165b"></rect><path d="M541.176,688.612l-.113-.125a22.316,22.316,0,0,0,2.742-3.143l.138.1A22.52,22.52,0,0,1,541.176,688.612Z" transform="translate(-29.762 -19.229)" fill="#0d165b"></path><path d="M546.5,698.365a.084.084,0,0,1-.084-.079,12.425,12.425,0,0,0-.345-2.3c-.1-.269-.922-.213-1.419-.114a.084.084,0,0,1-.033-.165c.146-.029,1.434-.269,1.611.222a12.629,12.629,0,0,1,.355,2.35.084.084,0,0,1-.079.089Z" transform="translate(-32.205 -26.424)" fill="#0d165b"></path><path d="M544.082,699.627a1.832,1.832,0,0,1-.872-.2l.085-.145a1.974,1.974,0,0,0,1.657-.005l.064.156A2.432,2.432,0,0,1,544.082,699.627Z" transform="translate(-31.265 -28.985)" fill="#0d165b"></path><path d="M551.015,709.426a.669.669,0,0,1-.365-.121l.1-.135a.5.5,0,0,0,.265.088Z" transform="translate(-36.475 -35.912)" fill="#0d165b"></path><path d="M542,706.3a.084.084,0,0,1-.082-.068,16.153,16.153,0,0,1-.018-5.156.084.084,0,0,1,.166.029,15.968,15.968,0,0,0,.017,5.094.084.084,0,0,1-.066.1Z" transform="translate(-30.203 -30.195)" fill="#0d165b"></path><path d="M544.01,712.123l-.148-.08a6.949,6.949,0,0,0,.585-3.121l.168-.009A6.982,6.982,0,0,1,544.01,712.123Z" transform="translate(-31.722 -35.732)" fill="#0d165b"></path><path d="M543.883,708.665a.084.084,0,0,1-.082-.068,26.765,26.765,0,0,1-.264-3.978.084.084,0,0,1,.084-.084h0a.084.084,0,0,1,.084.085,26.559,26.559,0,0,0,.261,3.945.084.084,0,0,1-.067.1Z" transform="translate(-31.494 -32.666)" fill="#0d165b"></path><path d="M542.849,696.417c-.88,0-3.387-1.613-3.494-1.682a.132.132,0,0,1-.057-.08,12.029,12.029,0,0,1-.312-2.765c0-3.821,1.7-6.929,3.789-6.929h.141c1.968,0,3.569,3.109,3.569,6.929a12.766,12.766,0,0,1-.293,2.763.134.134,0,0,1-.053.079C546.043,694.8,543.731,696.417,542.849,696.417Zm-3.306-1.874a11.651,11.651,0,0,0,3.306,1.611,10.037,10.037,0,0,0,3.1-1.608,12.5,12.5,0,0,0,.276-2.656c0-3.676-1.483-6.667-3.307-6.667h-.141c-1.944,0-3.526,2.991-3.526,6.667A11.775,11.775,0,0,0,539.543,694.542Z" transform="translate(-28.309 -18.96)" fill="#0d165b"></path><path d="M574.46,723.221" transform="translate(-53.147 -45.75)" fill="none" stroke="#0d165b" stroke-linejoin="round" stroke-width="0.561"></path><path d="M573.2,731.913" transform="translate(-52.263 -51.836)" fill="none" stroke="#0d165b" stroke-linejoin="round" stroke-width="0.561"></path><path d="M556.09,721.063" transform="translate(-40.284 -44.239)" fill="none" stroke="#0d165b" stroke-linejoin="round" stroke-width="0.561"></path><path d="M544.91,703.215h-.051c-.794,0-2.559-1.594-2.964-4.516l.208-.029c.4,2.86,2.111,4.335,2.755,4.335h.051c.6,0,2.211-1.474,2.583-4.334l.209.027C547.321,701.621,545.658,703.215,544.91,703.215Z" transform="translate(-30.345 -28.56)" fill="#0d165b"></path><path d="M540.01,691.221l-.111-.126c.007-.006.675-.592,1.42-1.319a7.912,7.912,0,0,0,2.085-2.584.084.084,0,0,1,.083-.071h0a.084.084,0,0,1,.083.072,7.863,7.863,0,0,0,1.96,2.584c.7.727,1.328,1.313,1.335,1.319l-.115.123c-.006-.006-.638-.6-1.341-1.325a10.533,10.533,0,0,1-1.924-2.417,10.621,10.621,0,0,1-2.048,2.419C540.688,690.626,540.016,691.215,540.01,691.221Z" transform="translate(-28.947 -20.473)" fill="#0d165b"></path><path d="M555.638,688.6a21.043,21.043,0,0,1-2.576-3.18l.141-.091a20.848,20.848,0,0,0,2.551,3.151Z" transform="translate(-38.164 -19.216)" fill="#0d165b"></path><path d="M552.439,698.365h-.005a.084.084,0,0,1-.079-.089,13.364,13.364,0,0,1,.333-2.348c.167-.494,1.383-.252,1.521-.223a.084.084,0,0,1-.035.165c-.465-.1-1.236-.154-1.327.112a13.211,13.211,0,0,0-.324,2.3A.084.084,0,0,1,552.439,698.365Z" transform="translate(-37.668 -26.424)" fill="#0d165b"></path><path d="M555.192,699.629a2.18,2.18,0,0,1-.882-.195l.068-.154a1.717,1.717,0,0,0,1.549.005l.089.143A1.651,1.651,0,0,1,555.192,699.629Z" transform="translate(-39.038 -28.987)" fill="#0d165b"></path><path d="M550.7,705.562a.082.082,0,0,1-.029-.005l-.472-.175.059-.158.442.164.414-.163.062.156-.444.175A.083.083,0,0,1,550.7,705.562Z" transform="translate(-36.156 -33.149)" fill="#0d165b"></path><path d="M549.466,707.614a4.242,4.242,0,0,1-.967-.143.084.084,0,0,1,.045-.162,4.151,4.151,0,0,0,.922.137,3.676,3.676,0,0,0,.864-.136.085.085,0,0,1,.1.057.084.084,0,0,1-.057.1A3.774,3.774,0,0,1,549.466,707.614Z" transform="translate(-34.925 -34.607)" fill="#0d165b"></path><path d="M551.868,709.43v-.168a.448.448,0,0,0,.244-.087l.1.132A.616.616,0,0,1,551.868,709.43Z" transform="translate(-37.328 -35.915)" fill="#0d165b"></path><path d="M560.333,706.051l-.166-.031a18.084,18.084,0,0,0,.026-5.218l.166-.026A18.288,18.288,0,0,1,560.333,706.051Z" transform="translate(-43.139 -30.034)" fill="#0d165b"></path><path d="M557.571,712.163a7.314,7.314,0,0,1-.568-3.191l.168.009a7.294,7.294,0,0,0,.55,3.106Z" transform="translate(-40.919 -35.773)" fill="#0d165b"></path><path d="M558.379,708.817l-.166-.03a29.716,29.716,0,0,0,.279-3.886h.168A29.986,29.986,0,0,1,558.379,708.817Z" transform="translate(-41.77 -32.922)" fill="#0d165b"></path><path d="M542.737,719.388l-.162-.207,5.922-4.634,1.8-.986.126.231-1.785.974Z" transform="translate(-30.821 -38.986)" fill="#0d165b"></path><rect width="6.415" height="0.263" transform="matrix(0.668, -0.744, 0.744, 0.668, 515.456, 680.128)" fill="#0d165b"></rect><path d="M574.056,727.133l-.262-.029c.312-2.763.345-2.829.357-2.854l.117.059.125.041C574.362,724.471,574.174,726.081,574.056,727.133Z" transform="translate(-52.68 -46.471)" fill="#0d165b"></path><g transform="translate(498.558 679.002)"><path d="M514.583,733.366a79.835,79.835,0,0,1,14.61,1.261l.972-4.04a91.372,91.372,0,0,0-15.582-1.261,92.919,92.919,0,0,0-15.025,1.158l.972,4.04A80.816,80.816,0,0,1,514.583,733.366Z" transform="translate(-499.258 -729.026)" fill="#fff"></path><path d="M528.492,734.227a.3.3,0,0,1-.056-.005,79.718,79.718,0,0,0-14.554-1.256,80.8,80.8,0,0,0-14,1.153.3.3,0,0,1-.344-.225l-.972-4.04a.3.3,0,0,1,.239-.365,93.224,93.224,0,0,1,15.078-1.163,91.669,91.669,0,0,1,15.637,1.267.3.3,0,0,1,.236.365l-.972,4.04A.3.3,0,0,1,528.492,734.227Zm-14.61-1.861a80.816,80.816,0,0,1,14.385,1.214l.832-3.456a92.314,92.314,0,0,0-15.216-1.2,93.869,93.869,0,0,0-14.659,1.1l.831,3.456A81.83,81.83,0,0,1,513.883,732.366Z" transform="translate(-498.558 -728.326)" fill="#0d165b"></path></g><g transform="translate(499.741 684.035)"><path d="M506.56,747.483v1.879l3.248-.9a.036.036,0,0,0,0-.072Z" transform="translate(-505.344 -746.774)" fill="#07a139"></path><path d="M507.156,745.117l.005,1.675-.085.009-4.572-.968Z" transform="translate(-502.504 -745.117)" fill="#07a139"></path></g><g transform="translate(524.178 684.063)"><path d="M587.829,747.864v1.88l-3.248-.9a.036.036,0,0,1,0-.072Z" transform="translate(-584.389 -747.068)" fill="#07a139"></path><path d="M584.02,745.207l-.005,1.762,3.528-.79.9-.166Z" transform="translate(-584.015 -745.207)" fill="#07a139"></path></g><g transform="translate(499.745 684.035)"><g transform="translate(0.912 0.314)"><path d="M506.56,747.483v1.879l3.248-.9a.036.036,0,0,0,0-.072Z" transform="translate(-506.26 -747.087)" fill="#fff"></path><path d="M505.56,748.832v-2.669l3.629,1.018a.33.33,0,0,1,.251.325.336.336,0,0,1-.269.329Zm.6-1.878v1.09l1.96-.541Zm2.856.8.029.008Zm.013-.5-.023.006Z" transform="translate(-505.56 -746.163)" fill="#0d165b"></path></g><path d="M507.165,745.117l.142,1.634-.222.05-4.568-.935Z" transform="translate(-502.518 -745.117)" fill="#0d165b"></path></g><g transform="translate(524.034 684.063)"><g transform="translate(0.004 0.401)"><path d="M587.829,747.864v1.88l-3.248-.9a.036.036,0,0,1,0-.072Z" transform="translate(-584.249 -747.468)" fill="#fff"></path><path d="M587.428,749.213l-3.627-1a.329.329,0,0,1-.253-.324.336.336,0,0,1,.27-.33l3.611-1.013Zm-2.56-1.328,1.96.541v-1.09Zm-.884.248-.024.007Zm-.043-.5.031.009Z" transform="translate(-583.548 -746.544)" fill="#0d165b"></path></g><path d="M583.683,745.207l-.15,1.764,3.672-.793.864-.142Z" transform="translate(-583.533 -745.207)" fill="#0d165b"></path></g></g></g></svg>