<svg xmlns="http://www.w3.org/2000/svg" width="104.09" height="119.503" viewBox="0 0 104.09 119.503"><g transform="translate(-510.529 -878.802)"><path d="M603.641,969.752V880.3h-81.47v89.45a11.67,11.67,0,0,0,6.478,10.2l29.62,15.717a10.012,10.012,0,0,0,9.274,0l29.62-15.717A11.668,11.668,0,0,0,603.641,969.752Z" fill="#fff"></path><path d="M562.906,998.3a11.412,11.412,0,0,1-5.34-1.31l-29.62-15.717a13.211,13.211,0,0,1-7.275-11.525V880.3a1.5,1.5,0,0,1,1.5-1.5h81.47a1.5,1.5,0,0,1,1.5,1.5v89.451a13.21,13.21,0,0,1-7.274,11.525l-29.621,15.717A11.408,11.408,0,0,1,562.906,998.3ZM523.671,881.8v87.951a10.222,10.222,0,0,0,5.681,8.875l29.62,15.716a8.493,8.493,0,0,0,7.868,0l29.62-15.716a10.222,10.222,0,0,0,5.681-8.875V881.8Zm7.983,4.946a.943.943,0,0,0-.369-.289,1.976,1.976,0,0,0-.363-.129,1.938,1.938,0,0,0-.449-.043,2.323,2.323,0,0,0-1.3.381,2.58,2.58,0,0,0-.935,1.261,6.66,6.66,0,0,0-.351,2.4,6.972,6.972,0,0,0,.332,2.392,2.49,2.49,0,0,0,.9,1.255,2.3,2.3,0,0,0,1.286.375,2.83,2.83,0,0,0,.627-.055,2.337,2.337,0,0,0,.467-.167.753.753,0,0,0,.357-.289,3.037,3.037,0,0,0,.222-.412l.541-1.2h.123l-.037,1.759a5.685,5.685,0,0,1-1.156.443,5.425,5.425,0,0,1-1.4.172,4.73,4.73,0,0,1-2.158-.486,3.663,3.663,0,0,1-1.532-1.445,4.557,4.557,0,0,1-.566-2.35,4.655,4.655,0,0,1,.345-1.857,3.816,3.816,0,0,1,.941-1.341,3.958,3.958,0,0,1,1.377-.812,5.034,5.034,0,0,1,1.655-.27,4.909,4.909,0,0,1,1.291.16,5.019,5.019,0,0,1,1.107.442l.05,1.513h-.123m3.887,6.409a3.26,3.26,0,0,1-1.624-.387,2.658,2.658,0,0,1-1.064-1.1,3.55,3.55,0,0,1-.375-1.673,3.3,3.3,0,0,1,.4-1.661,2.776,2.776,0,0,1,1.094-1.082,3.423,3.423,0,0,1,3.131-.006,2.739,2.739,0,0,1,1.088,1.076,3.317,3.317,0,0,1,.4,1.673,3.538,3.538,0,0,1-.375,1.679,2.677,2.677,0,0,1-1.058,1.095A3.225,3.225,0,0,1,536.427,894.565Zm0-.246a.959.959,0,0,0,.689-.246,1.611,1.611,0,0,0,.375-.873,13.567,13.567,0,0,0,0-3.555,1.618,1.618,0,0,0-.375-.874.963.963,0,0,0-.689-.246.984.984,0,0,0-.7.246,1.581,1.581,0,0,0-.382.874,13.56,13.56,0,0,0,0,3.555,1.574,1.574,0,0,0,.382.873A.979.979,0,0,0,536.427,894.319Zm5.769.124a2.072,2.072,0,0,1-.88-.184,1.35,1.35,0,0,1-.627-.6,2.159,2.159,0,0,1-.216-1.088l.037-3.162a.656.656,0,0,0-.1-.406.543.543,0,0,0-.307-.172l-.148-.049v-.123l2.2-.43.123.123-.062,1.746v2.965a.7.7,0,0,0,.228.578.876.876,0,0,0,.572.184,1.787,1.787,0,0,0,.615-.1,2.245,2.245,0,0,0,.541-.295l.049-4.01a.7.7,0,0,0-.086-.4.513.513,0,0,0-.32-.166l-.123-.037V888.7l2.153-.467.123.123-.037,1.746v3.334a.961.961,0,0,0,.074.418.574.574,0,0,0,.32.246l.123.037v.123l-2.153.123-.111-.726a4.408,4.408,0,0,1-.879.56A2.557,2.557,0,0,1,542.2,894.443Zm4.748-.062v-.123l.184-.05a.57.57,0,0,0,.338-.221.7.7,0,0,0,.093-.381v-3.85a.688.688,0,0,0-.093-.4.523.523,0,0,0-.338-.179l-.184-.049v-.123l2.115-.713.123.123.111,1.058v.1a2.572,2.572,0,0,1,.449-.633,2.493,2.493,0,0,1,.615-.474,1.391,1.391,0,0,1,.67-.185.941.941,0,0,1,.714.259.906.906,0,0,1,.246.652.844.844,0,0,1-.24.645.8.8,0,0,1-.572.228,1.13,1.13,0,0,1-.91-.517l-.025-.024a.407.407,0,0,0-.283-.191.326.326,0,0,0-.295.154.932.932,0,0,0-.2.264,3.284,3.284,0,0,0-.154.351v3.432a.57.57,0,0,0,.431.615l.393.111v.123Zm7.429.184a3.829,3.829,0,0,1-1.082-.141,5.065,5.065,0,0,1-.886-.351l.012-1.464h.123l.418.738a2.227,2.227,0,0,0,.6.732,1.363,1.363,0,0,0,.83.24,1.585,1.585,0,0,0,.954-.264.835.835,0,0,0,.363-.708.9.9,0,0,0-.259-.664,2.345,2.345,0,0,0-.959-.467l-.517-.16a2.542,2.542,0,0,1-1.181-.689,1.627,1.627,0,0,1-.43-1.144,1.775,1.775,0,0,1,.639-1.378,2.683,2.683,0,0,1,1.833-.566,3.755,3.755,0,0,1,.9.1,3.524,3.524,0,0,1,.818.314l-.074,1.328h-.123l-.43-.763a1.863,1.863,0,0,0-.461-.572,1.164,1.164,0,0,0-.683-.166,1.452,1.452,0,0,0-.787.234.742.742,0,0,0-.369.664.8.8,0,0,0,.313.665,3.217,3.217,0,0,0,.929.455l.554.16a2.531,2.531,0,0,1,1.267.744,1.759,1.759,0,0,1,.381,1.138,1.724,1.724,0,0,1-.707,1.439A3.207,3.207,0,0,1,554.373,894.565Zm11.445-3.889a3.639,3.639,0,0,0-2.042-.729,3.09,3.09,0,0,0,1.719-.742,1.664,1.664,0,0,0,.5-1.173,1.773,1.773,0,0,0-.685-1.427,3.516,3.516,0,0,0-2.232-.564h-3.641v.126l.229.089a.652.652,0,0,1,.349.241.793.793,0,0,1,.1.419v7.5h2.549a6.938,6.938,0,0,0,1.865-.21,3.257,3.257,0,0,0,1.16-.551,2,2,0,0,0,.6-.755,2.044,2.044,0,0,0,.178-.818A1.812,1.812,0,0,0,565.818,890.676Zm-3.83-4.382h.685a1.34,1.34,0,0,1,1.116.432,2.357,2.357,0,0,1,.342,1.445,1.976,1.976,0,0,1-.374,1.37,1.63,1.63,0,0,1-1.224.393h-.545Zm2.048,7.357a1.823,1.823,0,0,1-1.414.507h-.634v-3.97h.609a2.047,2.047,0,0,1,1.458.431,1.961,1.961,0,0,1,.444,1.446A2.3,2.3,0,0,1,564.036,893.651Zm4.813.951a1.864,1.864,0,0,1-1.236-.419,1.48,1.48,0,0,1-.5-1.2,1.426,1.426,0,0,1,.609-1.1,4.337,4.337,0,0,1,1.915-.754c.135-.026.287-.053.456-.083s.347-.061.533-.1v-1a2.525,2.525,0,0,0-.209-1.211.708.708,0,0,0-.653-.349.617.617,0,0,0-.482.2,1.2,1.2,0,0,0-.229.678l-.025.14a1.219,1.219,0,0,1-.266.8.791.791,0,0,1-.6.253.766.766,0,0,1-.545-.2.715.715,0,0,1-.216-.546,1.18,1.18,0,0,1,.362-.875,2.26,2.26,0,0,1,.958-.533,4.521,4.521,0,0,1,1.293-.177,2.527,2.527,0,0,1,1.744.551,2.307,2.307,0,0,1,.615,1.795v2.8q0,.571.533.571h.279l.114.1a1.87,1.87,0,0,1-.526.47,1.622,1.622,0,0,1-.805.165,1.371,1.371,0,0,1-.882-.26,1.218,1.218,0,0,1-.425-.692,5.357,5.357,0,0,1-.78.692A1.739,1.739,0,0,1,568.849,894.6Zm.774-.774a.987.987,0,0,0,.476-.12,3.38,3.38,0,0,0,.526-.374V891.2l-.254.05c-.084.018-.182.034-.291.051a1.953,1.953,0,0,0-.933.514,1.339,1.339,0,0,0-.348.97,1.109,1.109,0,0,0,.241.78A.763.763,0,0,0,569.623,893.828Zm6.139.774a3.945,3.945,0,0,1-1.116-.146,5.159,5.159,0,0,1-.914-.361l.013-1.51h.127l.431.761a2.278,2.278,0,0,0,.615.755,1.407,1.407,0,0,0,.856.247,1.635,1.635,0,0,0,.983-.272.857.857,0,0,0,.374-.73.926.926,0,0,0-.266-.685,2.426,2.426,0,0,0-.989-.482l-.533-.164a2.614,2.614,0,0,1-1.217-.711,1.671,1.671,0,0,1-.444-1.179,1.827,1.827,0,0,1,.659-1.421,2.764,2.764,0,0,1,1.89-.583,3.878,3.878,0,0,1,.932.108,3.611,3.611,0,0,1,.844.323l-.076,1.37H577.8l-.444-.787a1.9,1.9,0,0,0-.476-.589,1.191,1.191,0,0,0-.7-.172,1.5,1.5,0,0,0-.812.241.767.767,0,0,0-.38.685.826.826,0,0,0,.323.685,3.289,3.289,0,0,0,.958.469l.571.165a2.6,2.6,0,0,1,1.306.768,1.81,1.81,0,0,1,.393,1.173,1.776,1.776,0,0,1-.729,1.484A3.305,3.305,0,0,1,575.762,894.6Zm5.745,0a1.817,1.817,0,0,1-1.262-.406,1.662,1.662,0,0,1-.45-1.294v-4.337h-.875v-.127l.3-.051a2.421,2.421,0,0,0,.679-.254,2.727,2.727,0,0,0,.564-.443l1.04-1.155h.127l-.038,1.776h1.42v.254h-1.433v4.566a1,1,0,0,0,.2.672.632.632,0,0,0,.5.228.834.834,0,0,0,.469-.133,2.09,2.09,0,0,0,.406-.361l.127.126a1.867,1.867,0,0,1-.7.685A2.141,2.141,0,0,1,581.507,894.6Zm2.194-.19v-.127l.178-.051a.6.6,0,0,0,.349-.228.765.765,0,0,0,.095-.406v-3.97a.687.687,0,0,0-.095-.4.542.542,0,0,0-.349-.184l-.178-.038v-.127l2.321-.749.127.127-.038,1.8v3.552a.759.759,0,0,0,.095.405.587.587,0,0,0,.336.229l.127.038v.127Zm1.5-6.951a1.037,1.037,0,0,1-.729-.273.957.957,0,0,1,0-1.388,1.051,1.051,0,0,1,.729-.267,1.033,1.033,0,0,1,.723.267.971.971,0,0,1,0,1.388A1.02,1.02,0,0,1,585.2,887.461Zm4.718,7.141a2.687,2.687,0,0,1-1.344-.336,2.339,2.339,0,0,1-.945-1.04,4.066,4.066,0,0,1-.349-1.808,3.861,3.861,0,0,1,.393-1.845,2.651,2.651,0,0,1,1.04-1.091,2.839,2.839,0,0,1,1.408-.361,3.982,3.982,0,0,1,.85.089,2.633,2.633,0,0,1,.723.266v-1.649a.732.732,0,0,0-.083-.393.511.511,0,0,0-.348-.178l-.241-.05v-.127l2.308-.558.139.114-.05,1.775v6.2a.831.831,0,0,0,.089.412.5.5,0,0,0,.329.222l.114.038v.127l-2.168.139-.115-.456a3.05,3.05,0,0,1-.78.367A3.178,3.178,0,0,1,589.916,894.6Zm.736-.469a1.645,1.645,0,0,0,.976-.317V888.78a1.749,1.749,0,0,0-.964-.3,1.231,1.231,0,0,0-1.04.7,4.375,4.375,0,0,0-.431,2.213,4.061,4.061,0,0,0,.406,2.125A1.22,1.22,0,0,0,590.652,894.133Zm7.039-6.012a2.779,2.779,0,0,1,1.408.336,2.288,2.288,0,0,1,.894.913,2.727,2.727,0,0,1,.311,1.313c0,.093-.005.188-.013.285a1.133,1.133,0,0,1-.051.26h-3.779a3.257,3.257,0,0,0,.488,1.972,1.691,1.691,0,0,0,1.414.6,2.251,2.251,0,0,0,1.028-.2,2.516,2.516,0,0,0,.735-.6l.127.114a2.918,2.918,0,0,1-1.046,1.091,2.985,2.985,0,0,1-1.567.393,3.239,3.239,0,0,1-1.6-.387,2.733,2.733,0,0,1-1.091-1.11,3.562,3.562,0,0,1-.393-1.725,3.263,3.263,0,0,1,.457-1.769,3.071,3.071,0,0,1,1.173-1.11A3.171,3.171,0,0,1,597.691,888.121Zm-.038.253a.939.939,0,0,0-.628.222,1.522,1.522,0,0,0-.406.787,7.044,7.044,0,0,0-.158,1.592h2.168a4.919,4.919,0,0,0-.1-1.992A.861.861,0,0,0,597.653,888.374Z" fill="#0d165b"></path><path d="M585.17,970.456" fill="none" stroke="#0d165b" stroke-linejoin="round" stroke-width="0.561"></path><path d="M592.1,971.984c-.39-1.172-1.484-3.614-4.516-7.628-.223,1.736-.6,4.941-.883,7.462C589.493,971.86,591.132,971.919,592.1,971.984Z" fill="#fff"></path><path d="M587.587,964.356c3.032,4.014,4.126,6.456,4.516,7.628-.971-.065-2.61-.124-5.4-.166-.023.2-.045.4-.067.593l-.871-.1c.02-.18.038-.334.057-.507-7.506-.1-22.4-.08-52.114.224.481-1.377,2.036-4.6,6.952-10.19l-.667.319-.213-.446c-6.9,7.94-7.035,11.076-7.035,11.076s60.32-.622,60.32,0c0,0-.107-2.712-5.336-9.474C587.7,963.526,587.648,963.885,587.587,964.356Z" fill="#0d165b"></path><path d="M539.616,961.368l.165.345c.21-.242.407-.474.63-.725Z" fill="#0d165b"></path><path d="M540.661,961.84c.117-.132.225-.259.346-.394.368-.413.717-.832,1.065-1.251l-1.661.793c-.223.251-.42.483-.63.725l.213.446Z" fill="#0d165b"></path><path d="M540.922,970.079l.449.754,17.908-10.676q-.464-.227-.93-.468Z" fill="#0d165b"></path><path d="M541.371,970.833l17.908-10.676q-.464-.227-.93-.468l-17.427,10.39Z" fill="none"></path><path d="M587.765,963.125l-.245-.08-.171-.056-.393-.2a2.425,2.425,0,0,0-.116.592c-.128.847-.4,2.987-1.017,8.42-7.506-.1-22.4-.08-52.114.224.481-1.377,2.036-4.6,6.952-10.19.117-.132.225-.259.346-.394.368-.413.717-.832,1.065-1.251l-1.661.793-.795.38.165.345c-6.9,7.94-7.035,11.076-7.035,11.076s60.32-.622,60.32,0c0,0-.107-2.712-5.336-9.474C587.745,963.227,587.757,963.156,587.765,963.125Z" fill="none"></path><path d="M570.689,957.739a23.633,23.633,0,0,1-1.721-9.155c-1.838,2.486-3.814,3.788-5.046,3.788h-.17c-1.314,0-3.427-1.314-5.387-3.826a22.605,22.605,0,0,1-1.815,9.165c2.727,1.547,5.883,3.128,7.289,3.128S568.167,959.276,570.689,957.739Z" fill="#fff"></path><path d="M571.086,944.955a20.993,20.993,0,0,1-1.545,2.8,27.756,27.756,0,0,0,.832,7.454A98.534,98.534,0,0,0,571.086,944.955Z" fill="#fff"></path><path d="M563.752,951.671h.17c2.014,0,7.372-4.916,8.616-14.446-.665-.656-1.426-1.42-2.223-2.246-1.558-.316-4.049-.484-4.346.39a44.151,44.151,0,0,0-1.082,7.685.28.28,0,0,1-.28.264h-.017a.283.283,0,0,1-.264-.3,44.745,44.745,0,0,1,1.112-7.832c.425-1.258,2.883-1.086,4.23-.891-3.173-3.346-5.14-5.85-5.837-7.446-.739,1.6-2.83,4.1-6.208,7.449,1.423-.194,4.045-.372,4.5.883a42.058,42.058,0,0,1,1.183,7.836.281.281,0,0,1-.263.3h-.018a.281.281,0,0,1-.28-.263,41.418,41.418,0,0,0-1.15-7.681c-.317-.882-2.988-.714-4.654-.394-.851.829-1.664,1.6-2.373,2.253C555.892,946.758,561.6,951.671,563.752,951.671Zm.087-3.1a2.24,2.24,0,0,1-1.218-.4l.336-.45a1.69,1.69,0,0,0,.882.294,1.5,1.5,0,0,0,.814-.289l.348.44A2.055,2.055,0,0,1,563.839,948.568Zm2.669-10.746a5.724,5.724,0,0,0,5.168.018l.3.477a5.509,5.509,0,0,1-2.749.669,7.259,7.259,0,0,1-2.941-.65Zm-4.146,5.944,1.474.545,1.381-.542.205.522-1.48.582a.281.281,0,0,1-.1.019.323.323,0,0,1-.1-.016l-1.575-.582Zm1.477,2.549a12.248,12.248,0,0,0,2.882-.455.281.281,0,1,1,.158.539,12.6,12.6,0,0,1-3.04.477,14.141,14.141,0,0,1-3.224-.476.281.281,0,0,1,.149-.541A13.826,13.826,0,0,0,563.839,946.315Zm-8.658-7.994.283-.484a6.6,6.6,0,0,0,5.527-.018l.215.52a8.132,8.132,0,0,1-3.117.647A6.1,6.1,0,0,1,555.181,938.321Z" fill="#fff"></path><path d="M550.959,946.616c0-12.744,5.669-23.112,12.638-23.112h.471c6.565,0,11.906,10.368,11.906,23.112a42.866,42.866,0,0,1-.8,8.3l4.356-2.382c-2.977-6.331-4.322-13.623-4.322-22.853,0-4.052-1.06-7.166-3.152-9.254a11.353,11.353,0,0,0-8.144-3h-.045c-.714,0-5.66.113-9,3.441-2.1,2.094-3.169,5.061-3.169,8.817,0,13.172-2.9,22.407-9.625,30.517l9.855-4.706A40.208,40.208,0,0,1,550.959,946.616Z" fill="#fff"></path><path d="M566.111,924.769a71.493,71.493,0,0,0,6.75,8.445C571.238,928.9,568.852,925.809,566.111,924.769Z" fill="#fff"></path><path d="M572.139,956.812a57.733,57.733,0,0,0,.307-15.625c-.23.833-.487,1.625-.773,2.369a98.432,98.432,0,0,1-.922,12.859c.126.351.267.694.42,1.029.345-.214.674-.423.992-.627Z" fill="#fff"></path><path d="M574.442,939.067c-.268-.253-.716-.68-1.291-1.241q-.138.933-.327,1.808a61.173,61.173,0,0,1-.052,16.788c.544-.357,1.028-.684,1.406-.947a41.776,41.776,0,0,0,.919-8.859A42.916,42.916,0,0,0,574.442,939.067Z" fill="#fff"></path><path d="M554.193,933.277a76.554,76.554,0,0,0,7.382-8.561C558.572,925.705,555.955,928.848,554.193,933.277Z" fill="#fff"></path><path d="M556.405,956.652c0-.01-.014-.016-.016-.027a87.108,87.108,0,0,1-.881-13.114c-.295-.728-.562-1.5-.8-2.315a52,52,0,0,0,.233,15.579c.359.214.731.433,1.121.658C556.184,957.177,556.3,956.918,556.405,956.652Z" fill="#fff"></path><path d="M554.3,956.392a54.562,54.562,0,0,1,.038-16.591c-.151-.645-.283-1.31-.391-2-.637.584-1.131,1.027-1.419,1.283a40.256,40.256,0,0,0-.7,7.534,39.346,39.346,0,0,0,.975,8.849C553.214,955.723,553.728,956.043,554.3,956.392Z" fill="#fff"></path><path d="M556.608,934.518c4.264-4.162,6.734-7.221,6.954-8.617a.279.279,0,0,1,.277-.236h0a.28.28,0,0,1,.277.239c.21,1.417,2.471,4.4,6.539,8.621,1.434,1.49,2.773,2.8,3.6,3.592a34.051,34.051,0,0,0-.965-3.666,70.207,70.207,0,0,1-8.035-9.939,5.59,5.59,0,0,0-1.19-.131H563.6a6.385,6.385,0,0,0-1.157.108,75.612,75.612,0,0,1-8.686,9.978,32.408,32.408,0,0,0-1.032,3.692C553.6,937.369,555.053,936.036,556.608,934.518Z" fill="#fff"></path><path d="M556.782,955.607a26.033,26.033,0,0,0,1.012-7.846,20.9,20.9,0,0,1-1.717-2.963A86.6,86.6,0,0,0,556.782,955.607Z" fill="#fff"></path><path d="M585.823,971.806c.616-5.433.889-7.573,1.017-8.42-.486-.619-1.011-1.27-1.587-1.958a42.487,42.487,0,0,1-3.942-5.547l-13.762,15.334-.652-.585,13.948-15.542q-.492-.87-.938-1.764l-5.1,2.784-.07.049-19.648,15.384-.541-.692L568.2,960.161a11.614,11.614,0,0,1-4.365,1.554,13.006,13.006,0,0,1-4.56-1.558l-17.908,10.676-.449-.754,17.427-10.39c-2.632-1.361-5.216-2.98-5.955-3.451l-11.733,5.6c-4.916,5.589-6.471,8.813-6.952,10.19C563.424,971.726,578.317,971.71,585.823,971.806Z" fill="#fff"></path><path d="M586.4,960.465c-6.8-8.118-9.7-17.326-9.7-30.787,0-4.465-1.209-7.936-3.591-10.316a12.881,12.881,0,0,0-9.261-3.442H563.8c-1.1,0-6.3.2-9.99,3.879-2.4,2.385-3.61,5.709-3.61,9.879,0,13.453-3.083,22.655-10.31,30.77-7.546,8.476-7.877,11.947-7.89,12.315a.749.749,0,0,0,.213.55.767.767,0,0,0,.544.227c22.925-.236,57.544-.447,60-.07a.745.745,0,0,0,.316.07h.012a.75.75,0,0,0,.738-.75v-.025C593.8,972.4,593.492,968.937,586.4,960.465Zm-53.658,12.324s.131-3.136,7.035-11.076l-.165-.345.795-.38,1.661-.793c6.726-8.11,9.625-17.345,9.625-30.517,0-3.756,1.066-6.723,3.169-8.817,3.341-3.328,8.287-3.441,9-3.441h.045a11.353,11.353,0,0,1,8.144,3c2.092,2.088,3.152,5.2,3.152,9.254,0,9.23,1.345,16.522,4.322,22.853l-4.356,2.382a42.866,42.866,0,0,0,.8-8.3c0-12.744-5.341-23.112-11.906-23.112H563.6c-6.969,0-12.638,10.368-12.638,23.112a40.208,40.208,0,0,0,.968,8.873l-9.855,4.706c-.348.419-.7.838-1.065,1.251-.121.135-.229.262-.346.394l11.733-5.6c.739.471,3.323,2.09,5.955,3.451q.466.241.93.468a13.006,13.006,0,0,0,4.56,1.558,11.614,11.614,0,0,0,4.365-1.554l-13.658,10.688.541.692,19.648-15.384.07-.049,5.1-2.784q.445.894.938,1.764L566.9,970.63l.652.585,13.762-15.334a42.487,42.487,0,0,0,3.942,5.547c.576.688,1.1,1.339,1.587,1.958a2.425,2.425,0,0,1,.116-.592l.393.2.171.056.245.08c-.008.031-.02.1-.035.19,5.229,6.762,5.336,9.474,5.336,9.474C593.066,972.167,532.746,972.789,532.746,972.789Zm23.8-15.078a22.605,22.605,0,0,0,1.815-9.165c1.96,2.512,4.073,3.826,5.387,3.826h.17c1.232,0,3.208-1.3,5.046-3.788a23.633,23.633,0,0,0,1.721,9.155c-2.522,1.537-5.455,3.1-6.85,3.1S559.277,959.258,556.55,957.711Zm-2.8-23.244a75.612,75.612,0,0,0,8.686-9.978,6.385,6.385,0,0,1,1.157-.108h.471a5.59,5.59,0,0,1,1.19.131,70.207,70.207,0,0,0,8.035,9.939,34.051,34.051,0,0,1,.965,3.666c-.829-.795-2.168-2.1-3.6-3.592-4.068-4.224-6.329-7.2-6.539-8.621a.28.28,0,0,0-.277-.239h0a.279.279,0,0,0-.277.236c-.22,1.4-2.69,4.455-6.954,8.617-1.555,1.518-3.009,2.851-3.886,3.641A32.408,32.408,0,0,1,553.754,934.467Zm.439-1.19c1.762-4.429,4.379-7.572,7.382-8.561A76.554,76.554,0,0,1,554.193,933.277Zm11.918-8.508c2.741,1.04,5.127,4.127,6.75,8.445A71.493,71.493,0,0,1,566.111,924.769Zm-11.546,12.464c.709-.658,1.522-1.424,2.373-2.253,1.666-.32,4.337-.488,4.654.394a41.418,41.418,0,0,1,1.15,7.681.281.281,0,0,0,.28.263h.018a.281.281,0,0,0,.263-.3,42.058,42.058,0,0,0-1.183-7.836c-.452-1.255-3.074-1.077-4.5-.883,3.378-3.347,5.469-5.851,6.208-7.449.7,1.6,2.664,4.1,5.837,7.446-1.347-.195-3.805-.367-4.23.891a44.745,44.745,0,0,0-1.112,7.832.283.283,0,0,0,.264.3h.017a.28.28,0,0,0,.28-.264,44.151,44.151,0,0,1,1.082-7.685c.3-.874,2.788-.706,4.346-.39.8.826,1.558,1.59,2.223,2.246-1.244,9.53-6.6,14.446-8.616,14.446h-.17C561.6,951.671,555.892,946.758,554.565,937.233Z" fill="#0d165b"></path><path d="M560.991,937.819a6.6,6.6,0,0,1-5.527.018l-.283.484a6.1,6.1,0,0,0,2.908.665,8.132,8.132,0,0,0,3.117-.647Z" fill="#0d165b"></path><path d="M571.972,938.317l-.3-.477a5.724,5.724,0,0,1-5.168-.018l-.226.514a7.259,7.259,0,0,0,2.941.65A5.509,5.509,0,0,0,571.972,938.317Z" fill="#0d165b"></path><path d="M563.839,944.892a.281.281,0,0,0,.1-.019l1.48-.582-.205-.522-1.381.542-1.474-.545-.2.528,1.575.582A.323.323,0,0,0,563.839,944.892Z" fill="#0d165b"></path><path d="M560.419,946.055a.28.28,0,0,0,.2.345,14.141,14.141,0,0,0,3.224.476,12.6,12.6,0,0,0,3.04-.477.281.281,0,1,0-.158-.539,12.248,12.248,0,0,1-2.882.455,13.826,13.826,0,0,1-3.075-.456A.283.283,0,0,0,560.419,946.055Z" fill="#0d165b"></path><path d="M563.839,948.007a1.69,1.69,0,0,1-.882-.294l-.336.45a2.24,2.24,0,0,0,1.218.4,2.055,2.055,0,0,0,1.162-.41l-.348-.44A1.5,1.5,0,0,1,563.839,948.007Z" fill="#0d165b"></path><path d="M585.823,971.806l.881.012c.286-2.521.66-5.726.883-7.462q-.355-.471-.747-.97C586.712,964.233,586.439,966.373,585.823,971.806Z" fill="#0d165b"></path><path d="M587.765,963.125l-.245-.08.21.27C587.745,963.227,587.757,963.156,587.765,963.125Z" fill="#0d165b"></path><path d="M586.956,962.794a2.425,2.425,0,0,0-.116.592q.391.5.747.97c.061-.471.11-.83.143-1.041l-.21-.27-.171-.056Z" fill="#0d165b"></path><path d="M585.766,972.313l.871.1c.022-.192.044-.391.067-.593l-.881-.012C585.8,971.979,585.786,972.133,585.766,972.313Z" fill="#0d165b"></path><path d="M561.645,981.345a266.319,266.319,0,0,1,48.731,4.207l3.242-13.476c-14-2.657-33.977-4.207-51.973-4.207-17.206,0-36.5,1.417-50.116,3.863l3.243,13.476A269.529,269.529,0,0,1,561.645,981.345Z" fill="#fff"></path><path d="M610.376,986.551a.99.99,0,0,1-.187-.017,265.912,265.912,0,0,0-48.544-4.19,269.387,269.387,0,0,0-46.7,3.848,1,1,0,0,1-1.149-.75l-3.243-13.476a1,1,0,0,1,.795-1.218c13.315-2.393,32.586-3.879,50.293-3.879,18.444,0,38.43,1.619,52.16,4.224a1,1,0,0,1,.786,1.217l-3.243,13.476A1,1,0,0,1,610.376,986.551Zm-48.731-6.207a269.634,269.634,0,0,1,47.98,4.049l2.775-11.526c-13.575-2.472-32.884-4-50.755-4-17.138,0-35.736,1.4-48.9,3.664l2.774,11.526A273.021,273.021,0,0,1,561.645,980.344Z" fill="#0d165b"></path><path d="M520.525,978.722l-.871.13-.364-.883-1.112.166-.095.952-.852.127.537-4.233,1.014-.15Zm-2.3-1.331.8-.119-.644-1.583Z" fill="#0d165b"></path><path d="M521.548,977.759l1.634-.208.1.822-2.484.316-.519-4.073.849-.109Z" fill="#0d165b"></path><path d="M524.455,977.412l1.638-.179.089.822-2.488.273-.447-4.083.851-.093Z" fill="#0d165b"></path><path d="M526.589,978.016l-.379-4.089,2.548-.236.076.824-1.7.157.077.831,1.348-.125.072.774-1.348.125.078.836,1.759-.163.076.824Z" fill="#0d165b"></path><path d="M530.873,973.525a1.194,1.194,0,0,1,.937.274,1.276,1.276,0,0,1,.4.89,1.314,1.314,0,0,1-.249.98,1.218,1.218,0,0,1-.883.4l-.075.062-.651.049.116,1.495-.839.065-.315-4.094Zm.023,1.852a.508.508,0,0,0,.363-.154.691.691,0,0,0-.061-.788.513.513,0,0,0-.382-.095l-.606.046.08,1.037Zm.518.184,1.2,1.948-.942.073-.977-1.729Z" fill="#0d165b"></path><path d="M537.156,977.237l-.88.051-.282-.912-1.123.064-.18.94-.86.049.916-4.166,1.024-.059Zm-2.168-1.532.805-.047-.5-1.635Z" fill="#0d165b"></path><path d="M540.008,972.995l.111,2.43a1.965,1.965,0,0,1-.31,1.32,1.607,1.607,0,0,1-2.191.1,1.952,1.952,0,0,1-.432-1.285l-.112-2.43.86-.04.113,2.449a1.154,1.154,0,0,0,.182.652.59.59,0,0,0,.914-.042,1.151,1.151,0,0,0,.122-.666l-.113-2.449Z" fill="#0d165b"></path><path d="M542.1,977.025l-.13-4.1,1.6-.05a1.252,1.252,0,0,1,.9.261,1.094,1.094,0,0,1,.315.808,1.082,1.082,0,0,1-.146.606.75.75,0,0,1-.492.336v.005a.821.821,0,0,1,.575.309,1.23,1.23,0,0,1-.066,1.459,1.236,1.236,0,0,1-.886.317Zm.749-2.451.622-.02a.448.448,0,1,0-.028-.9l-.622.019Zm.053,1.673.7-.023a.467.467,0,0,0,.345-.129.473.473,0,0,0,.1-.345.446.446,0,0,0-.125-.329.465.465,0,0,0-.352-.1l-.7.022Z" fill="#0d165b"></path><path d="M546.178,972.8l.1,4.1-.856.022-.1-4.1Z" fill="#0d165b"></path><path d="M546.933,976.887l-.082-4.106,2.558-.051.017.827-1.7.034.017.834,1.354-.027.015.777-1.353.028.016.84,1.767-.036.016.828Z" fill="#0d165b"></path><path d="M552.894,972.683l.054,4.106L552,976.8l-1.049-2.208-.257-.606h-.005l.03.759.026,2.072-.756.01-.054-4.107.951-.011,1.049,2.207.257.606h0l-.03-.759-.027-2.071Z" fill="#0d165b"></path><path d="M557.835,976.758l-.881,0-.234-.925-1.125.006-.229.928-.861.005,1.133-4.112,1.025-.006Zm-2.085-1.644.807,0-.412-1.659Z" fill="#0d165b"></path><path d="M560.783,972.646l-1.158,4.109-1.005,0-1.177-4.105.9,0,.606,2.482.181.808.173-.8.608-2.5Z" fill="#0d165b"></path><path d="M561.081,976.755l.009-4.107,2.558.005,0,.828-1.7,0,0,.834,1.354,0v.777l-1.354,0,0,.839,1.766,0v.828Z" fill="#0d165b"></path><path d="M567.038,975.6a1.8,1.8,0,0,1-.308.7,1.25,1.25,0,0,1-.5.4,1.568,1.568,0,0,1-.638.124,1.473,1.473,0,0,1-.859-.259,1.58,1.58,0,0,1-.553-.729,3.421,3.421,0,0,1,.016-2.277,1.576,1.576,0,0,1,.562-.721,1.467,1.467,0,0,1,.858-.246,1.62,1.62,0,0,1,.63.126,1.209,1.209,0,0,1,.486.373,1.524,1.524,0,0,1,.279.643l-.754.375a.935.935,0,0,0-.223-.53.558.558,0,0,0-.394-.147.613.613,0,0,0-.407.141.894.894,0,0,0-.267.424,2.336,2.336,0,0,0-.1.706,2.476,2.476,0,0,0,.081.7.846.846,0,0,0,.252.43.647.647,0,0,0,.425.147.561.561,0,0,0,.407-.162.922.922,0,0,0,.23-.506Z" fill="#0d165b"></path><path d="M571.507,972.735l-.013.828-1.07-.016-.049,3.278-.855-.013.049-3.278-1.076-.016.013-.828Z" fill="#0d165b"></path><path d="M573.309,972.711a1.452,1.452,0,0,1,.852.271,1.584,1.584,0,0,1,.539.736,3.45,3.45,0,0,1-.049,2.278,1.592,1.592,0,0,1-.572.712,1.459,1.459,0,0,1-.863.233,1.476,1.476,0,0,1-.855-.27,1.59,1.59,0,0,1-.542-.738,3.436,3.436,0,0,1,.05-2.276,1.585,1.585,0,0,1,.574-.713A1.476,1.476,0,0,1,573.309,972.711Zm-.019.839a.6.6,0,0,0-.406.135.9.9,0,0,0-.258.421,2.519,2.519,0,0,0-.1.7,2.478,2.478,0,0,0,.069.7.885.885,0,0,0,.239.435.592.592,0,0,0,.4.152.579.579,0,0,0,.4-.134.9.9,0,0,0,.256-.423,3.018,3.018,0,0,0,.031-1.41.9.9,0,0,0-.237-.431A.585.585,0,0,0,573.29,973.55Z" fill="#0d165b"></path><path d="M578.3,972.91l-.074,2.431a1.968,1.968,0,0,1-.411,1.292,1.606,1.606,0,0,1-2.192-.067,1.954,1.954,0,0,1-.333-1.314l.075-2.432.86.026-.074,2.451a1.153,1.153,0,0,0,.131.664.517.517,0,0,0,.449.231.523.523,0,0,0,.467-.2,1.167,1.167,0,0,0,.172-.655l.074-2.451Z" fill="#0d165b"></path><path d="M581.685,973.044l-.033.827-1.07-.043-.131,3.276-.855-.034.131-3.276-1.074-.043.033-.827Z" fill="#0d165b"></path><path d="M584.7,973.132a1.771,1.771,0,0,1,.8.222,1.75,1.75,0,0,1,.58.552l-.45.667a1.553,1.553,0,0,0-.436-.444,1.092,1.092,0,0,0-.552-.17.755.755,0,0,0-.3.033.327.327,0,0,0-.171.128.38.38,0,0,0-.06.2.289.289,0,0,0,.085.227.773.773,0,0,0,.306.169l.543.185a1.432,1.432,0,0,1,.7.456,1.1,1.1,0,0,1,.189.739,1.413,1.413,0,0,1-.22.727,1.145,1.145,0,0,1-.516.427,1.613,1.613,0,0,1-.724.112,2.147,2.147,0,0,1-.621-.124,1.843,1.843,0,0,1-.524-.287,1.778,1.778,0,0,1-.38-.407l.451-.692a1.407,1.407,0,0,0,.288.336,1.457,1.457,0,0,0,.386.242,1.24,1.24,0,0,0,.435.106.84.84,0,0,0,.293-.028.335.335,0,0,0,.179-.121.382.382,0,0,0,.065-.2.33.33,0,0,0-.062-.225.578.578,0,0,0-.275-.167l-.6-.2a1.981,1.981,0,0,1-.483-.242.94.94,0,0,1-.321-.379,1.182,1.182,0,0,1-.093-.575,1.369,1.369,0,0,1,.206-.676,1.214,1.214,0,0,1,.513-.45A1.585,1.585,0,0,1,584.7,973.132Z" fill="#0d165b"></path><path d="M588.042,973.337a1.463,1.463,0,0,1,.84.308,1.593,1.593,0,0,1,.505.761,3.431,3.431,0,0,1-.152,2.272,1.6,1.6,0,0,1-.6.686,1.465,1.465,0,0,1-.873.194,1.481,1.481,0,0,1-.843-.309,1.592,1.592,0,0,1-.507-.761,3.424,3.424,0,0,1,.153-2.272,1.58,1.58,0,0,1,.6-.686A1.47,1.47,0,0,1,588.042,973.337Zm-.056.837a.592.592,0,0,0-.411.117.881.881,0,0,0-.278.408,2.976,2.976,0,0,0-.095,1.406.9.9,0,0,0,.22.445.59.59,0,0,0,.393.17.583.583,0,0,0,.409-.116.9.9,0,0,0,.275-.412,2.486,2.486,0,0,0,.131-.7,2.455,2.455,0,0,0-.037-.711.888.888,0,0,0-.217-.442A.585.585,0,0,0,587.986,974.174Z" fill="#0d165b"></path><path d="M593.159,973.794l-.337,4.091-.949-.078-.834-2.3-.2-.627h-.005l-.043.757-.171,2.065-.754-.062.338-4.093.949.079.834,2.3.2.628h.005l.043-.758.171-2.065Z" fill="#0d165b"></path><path d="M594.779,978.072l.432-4.083,2.545.269-.088.824-1.692-.18-.088.829,1.346.143-.082.773-1.346-.142-.089.835,1.757.186-.087.823Zm2.652-4.242-.584-.062-.262-.6-.382.535-.584-.063.6-.956.822.088Z" fill="#0d165b"></path><path d="M601.075,974.667l-.1.821-1.063-.132-.4,3.254-.849-.106.4-3.254-1.067-.132.1-.821Z" fill="#0d165b"></path><path d="M603.1,974.958a1.19,1.19,0,0,1,.854.472,1.287,1.287,0,0,1,.191.955,1.32,1.32,0,0,1-.458.9,1.218,1.218,0,0,1-.949.194l-.087.044-.645-.094-.217,1.485-.832-.121.592-4.065Zm-.384,1.811a.51.51,0,0,0,.388-.07.544.544,0,0,0,.179-.376.528.528,0,0,0-.066-.4.5.5,0,0,0-.352-.177l-.6-.088-.151,1.028Zm.465.294.746,2.164-.936-.136-.573-1.9Z" fill="#0d165b"></path><path d="M604.25,979.281l.685-4.049,2.522.427-.137.815-1.679-.284-.139.822,1.335.226-.13.768-1.335-.226-.14.828,1.742.294-.138.816Z" fill="#0d165b"></path><path d="M518.532,986.025v6.27l10.834-2.993a.121.121,0,0,0,0-.24Z" fill="#fff"></path><path d="M518.029,992.955v-7.593l11.473,3.216a.617.617,0,0,1,.475.606.627.627,0,0,1-.509.611Zm1.005-6.267v4.946l8.889-2.455Zm10.187,2.855a.286.286,0,0,0,.039.01Zm.011-.725-.031.008Z" fill="#0d165b"></path><path d="M529.991,983.659l.018,5.587-.283.03-15.249-3.228Z" fill="#0d165b"></path><path d="M607.463,986.406v6.27l-10.834-2.993a.121.121,0,0,1,0-.24Z" fill="#fff"></path><path d="M607.966,993.336l-11.471-3.168a.616.616,0,0,1-.478-.6.626.626,0,0,1,.5-.614l11.444-3.209Zm-9.894-3.775,8.888,2.454v-4.946Zm-1.279.358-.029.008A.142.142,0,0,0,596.793,989.919Zm-.061-.728.041.011Z" fill="#0d165b"></path><path d="M596,983.75l-.018,5.878,11.767-2.637,2.993-.554Z" fill="#0d165b"></path><path d="M531.888,905.483c-.1,1.154,2.689,6.554,7.812,13.358,4.953,6.579,8.268,9.437,9.145,9.667.1-1.155-2.688-6.555-7.812-13.359C536.08,908.57,532.765,905.712,531.888,905.483Z" fill="#fbe052"></path><path d="M546.034,930.675c.12-.08.13-.145.131-.2.017-1.106-3.875-4.155-10.254-6.611a26.288,26.288,0,0,0-8.417-2.039,2.722,2.722,0,0,0-1.417.269c-.119.08-.129.144-.13.2-.018,1.106,3.875,4.156,10.254,6.612C541.355,930.888,545.115,931.295,546.034,930.675Z" fill="#06a38c"></path><path d="M546.052,933.31c-.009-.03-.039-.119-.237-.2a2.351,2.351,0,0,0-.881-.134,15.956,15.956,0,0,0-6.182,1.844c-4.19,2.033-6.5,4.456-6.247,5.231.01.029.039.119.237.2.937.4,3.664-.059,7.063-1.71C544,936.507,546.3,934.085,546.052,933.31Z" fill="#fbe052"></path><path d="M547.609,910.848c-3.023-1.8-5.642-2.583-6.961-2.583a1.1,1.1,0,0,0-.842.237c-.019.024-.077.1-.039.309.182,1,2.063,3.03,5.308,4.963,4,2.385,7.293,2.982,7.8,2.347.02-.024.078-.1.04-.309C552.737,914.809,550.855,912.783,547.609,910.848Z" fill="#e84a3a"></path><path d="M539.222,905.774c.939.4,3.665-.06,7.064-1.71,4.19-2.033,6.5-4.456,6.246-5.231-.009-.029-.038-.119-.236-.2-.936-.4-3.665.06-7.064,1.709-4.189,2.033-6.5,4.456-6.247,5.231C538.995,905.6,539.024,905.689,539.222,905.774Z" fill="#fbe052"></path><path d="M545.686,939.99a.438.438,0,0,0-.064-.005c-.811,0-2.821,2.192-4.3,5.841-1.2,2.948-1.4,5.252-.975,6,.089.159.17.172.205.178.756.1,2.845-2.085,4.367-5.835,1.2-2.949,1.4-5.252.976-6C545.8,940.009,545.721,940,545.686,939.99Z" fill="#ef89a2"></path><path d="M567.732,914.81c.755.125,2.844-2.085,4.367-5.836,1.2-2.948,1.4-5.251.975-6-.089-.158-.17-.171-.2-.177a.446.446,0,0,0-.065,0c-.811,0-2.822,2.191-4.3,5.84-1.2,2.948-1.4,5.251-.975,6C567.616,914.791,567.7,914.8,567.732,914.81Z" fill="#06a38c"></path><path d="M563.176,914.984c.1.059.137.046.164.037.935-.269,2.16-4.04,2.032-9.567-.1-4.534-1.08-7.527-1.945-8.041a.252.252,0,0,0-.124-.044.126.126,0,0,0-.04.007c-.935.271-2.16,4.041-2.033,9.568C561.334,911.478,562.31,914.471,563.176,914.984Z" fill="#06a38c"></path><path d="M538.378,948.253a2.1,2.1,0,0,0-.759-1.846,6.065,6.065,0,0,0-4.075-1.573,4.257,4.257,0,0,0-1.438.23,1.758,1.758,0,0,0-1.238,1.182,2.1,2.1,0,0,0,.759,1.846,5.874,5.874,0,0,0,5.513,1.342A1.761,1.761,0,0,0,538.378,948.253Z" fill="#f6becb"></path><path d="M533.321,918.744a1.761,1.761,0,0,0,1.238-1.181,2.1,2.1,0,0,0-.759-1.847,6.068,6.068,0,0,0-4.076-1.572,4.255,4.255,0,0,0-1.437.23,1.763,1.763,0,0,0-1.239,1.183,2.1,2.1,0,0,0,.759,1.844A5.872,5.872,0,0,0,533.321,918.744Z" fill="#06a38c"></path><path d="M536.2,902.03a1.763,1.763,0,0,0,1.238-1.181,2.1,2.1,0,0,0-.759-1.847,6.067,6.067,0,0,0-4.076-1.572,4.241,4.241,0,0,0-1.438.23,1.765,1.765,0,0,0-1.238,1.183,2.1,2.1,0,0,0,.759,1.844A5.867,5.867,0,0,0,536.2,902.03Z" fill="#f6becb"></path><path d="M586.387,918.841c5.117-6.8,7.9-12.191,7.81-13.358-.879.232-4.193,3.09-9.144,9.666-5.117,6.8-7.9,12.191-7.809,13.359C578.122,928.276,581.436,925.416,586.387,918.841Z" fill="#06a38c"></path><path d="M590.176,923.86c-6.379,2.456-10.272,5.505-10.254,6.611,0,.059.011.124.13.2.921.62,4.681.213,9.834-1.77,6.379-2.456,10.271-5.506,10.254-6.612,0-.059-.011-.123-.13-.2C599.087,921.464,595.326,921.876,590.176,923.86Z" fill="#ec6751"></path><path d="M593.345,940.25c.2-.084.227-.174.237-.2.251-.775-2.057-3.2-6.247-5.231a15.952,15.952,0,0,0-6.182-1.844,2.348,2.348,0,0,0-.881.134c-.2.085-.228.174-.237.2-.252.775,2.056,3.2,6.246,5.23C589.681,940.191,592.409,940.651,593.345,940.25Z" fill="#06a38c"></path><path d="M586.32,908.811c.038-.212-.021-.285-.04-.309-.511-.637-3.8-.037-7.8,2.346-3.245,1.935-5.127,3.962-5.308,4.964-.038.211.02.285.04.309.51.636,3.8.039,7.8-2.347C584.257,911.84,586.138,909.813,586.32,908.811Z" fill="#fbe052"></path><path d="M579.8,904.064c3.4,1.65,6.127,2.107,7.063,1.71.2-.085.228-.175.237-.2.252-.775-2.057-3.2-6.247-5.231a15.973,15.973,0,0,0-6.182-1.844,2.331,2.331,0,0,0-.882.135c-.2.084-.226.174-.236.2C573.3,899.608,575.611,902.031,579.8,904.064Z" fill="#06a38c"></path><path d="M580.4,939.99c-.034.006-.116.019-.205.179-.422.752-.222,3.055.975,6,1.522,3.746,3.586,5.962,4.368,5.835.034-.006.116-.019.2-.178.422-.752.223-3.056-.975-6C583.246,942.077,581.164,939.88,580.4,939.99Z" fill="#e84a3a"></path><path d="M593.981,945.064a4.261,4.261,0,0,0-1.438-.23,6.065,6.065,0,0,0-4.075,1.573,2.1,2.1,0,0,0-.759,1.846,1.759,1.759,0,0,0,1.238,1.181,5.875,5.875,0,0,0,5.513-1.342,2.1,2.1,0,0,0,.759-1.846A1.76,1.76,0,0,0,593.981,945.064Z" fill="#fce67d"></path><path d="M591.528,917.563a1.761,1.761,0,0,0,1.238,1.181,5.873,5.873,0,0,0,5.513-1.343,2.1,2.1,0,0,0,.76-1.844,1.764,1.764,0,0,0-1.239-1.183,4.255,4.255,0,0,0-1.437-.23,6.065,6.065,0,0,0-4.076,1.572A2.1,2.1,0,0,0,591.528,917.563Z" fill="#06a38c"></path><path d="M589.891,902.03a5.863,5.863,0,0,0,5.514-1.343,2.1,2.1,0,0,0,.759-1.844,1.764,1.764,0,0,0-1.239-1.183,4.237,4.237,0,0,0-1.438-.23A6.066,6.066,0,0,0,589.412,899a2.1,2.1,0,0,0-.76,1.847A1.764,1.764,0,0,0,589.891,902.03Z" fill="#e84a3a"></path><path d="M551.5,909.31a1.763,1.763,0,0,0,1.238,1.183,5.874,5.874,0,0,0,5.514-1.342,2.1,2.1,0,0,0,.759-1.847,1.763,1.763,0,0,0-1.238-1.18,4.245,4.245,0,0,0-1.439-.231,6.065,6.065,0,0,0-4.075,1.573A2.1,2.1,0,0,0,551.5,909.31Z" fill="#ef89a2"></path><path d="M551.836,946.616a40.256,40.256,0,0,1,.7-7.534c.288-.256.782-.7,1.419-1.283.108.692.24,1.357.391,2a54.562,54.562,0,0,0-.038,16.591c-.576-.349-1.09-.669-1.493-.927A39.346,39.346,0,0,1,551.836,946.616Z" fill="#b6c7e8"></path><path d="M556.782,955.607a86.6,86.6,0,0,1-.7-10.809,20.9,20.9,0,0,0,1.717,2.963A26.033,26.033,0,0,1,556.782,955.607Z" fill="#267ec1"></path><path d="M569.541,947.755a20.993,20.993,0,0,0,1.545-2.8,98.534,98.534,0,0,1-.713,10.254A27.756,27.756,0,0,1,569.541,947.755Z" fill="#267ec1"></path><path d="M570.751,956.415a98.432,98.432,0,0,0,.922-12.859c.286-.744.543-1.536.773-2.369a57.733,57.733,0,0,1-.307,15.625l.024.005c-.318.2-.647.413-.992.627C571.018,957.109,570.877,956.766,570.751,956.415Z" fill="#6896cf"></path><path d="M572.772,956.422a61.173,61.173,0,0,0,.052-16.788q.188-.876.327-1.808c.575.561,1.023.988,1.291,1.241a42.916,42.916,0,0,1,.655,7.549,41.776,41.776,0,0,1-.919,8.859C573.8,955.738,573.316,956.065,572.772,956.422Z" fill="#b6c7e8"></path><path d="M554.94,956.775a52,52,0,0,1-.233-15.579c.239.813.506,1.587.8,2.315a87.108,87.108,0,0,0,.881,13.114c0,.011.013.017.016.027-.106.266-.221.525-.344.781C555.671,957.208,555.3,956.989,554.94,956.775Z" fill="#6896cf"></path></g></svg>